<?xml version="1.0" encoding="UTF-8"?>
<svg width="120px" height="121px" viewBox="0 0 120 121" version="1.1" xmlns="http://www.w3.org/2000/svg" xmlns:xlink="http://www.w3.org/1999/xlink">
    <!-- Generator: Sketch 63.1 (92452) - https://sketch.com -->
    <title>chat (1)</title>
    <desc>Created with Sketch.</desc>
    <g id="Page-1" stroke="none" stroke-width="1" fill="none" fill-rule="evenodd">
        <g id="0067" transform="translate(-660.000000, -335.000000)" fill-rule="nonzero">
            <g id="chat-(1)" transform="translate(660.000000, 335.000000)">
                <path d="M91.4028115,120.237578 L94.7811614,110.100597 L46.2982669,110.100597 C42.2032973,110.100597 38.8713055,106.768605 38.8713055,102.673636 L38.8713055,77.2635769 L42.7344844,77.2635769 L42.7344844,102.673636 C42.7344844,104.639994 44.3319088,106.237418 46.2982669,106.237418 L100.143254,106.237418 L98.3719861,111.553152 L107.230255,106.237418 L112.573032,106.237418 C114.537458,106.237418 116.134882,104.639994 116.134882,102.673636 L116.134882,71.1694123 C116.134882,69.2030542 114.537458,67.6056298 112.5711,67.6056298 L71.7083257,67.6056298 L71.7083257,63.7424509 L112.5711,63.7424509 C116.66607,63.7424509 119.998061,67.0744427 119.998061,71.1694123 L119.998061,102.675567 C119.998061,106.768605 116.66607,110.100597 112.5711,110.100597 L108.300356,110.100597 L91.4028115,120.237578 Z" id="Path" fill="#333333"></path>
                <path d="M44.6660738,44.4265567 L73.6399151,44.4265567 L73.6399151,71.768205 C73.6399151,75.8631746 70.3079234,79.1951663 66.2129538,79.1951663 L63.981968,79.1951663 L67.8451469,88.8531134 L50.4608421,79.1951663 L7.66647842,79.1951663 C3.57150884,79.1951663 0.239517088,75.8631746 0.239517088,71.768205 L0.239517088,40.2639815 C0.239517088,36.1690119 3.57150884,32.8370202 7.66647842,32.8370202 L40.802895,32.8370202 L40.802895,40.5633779 L44.6660738,44.4265567 Z" id="Path" fill="#CBCBCB"></path>
                <g id="Group" transform="translate(9.657947, 0.000000)" fill="#333333">
                    <path d="M81.7448643,56.4951274 L85.1232142,46.3581461 L36.6403197,46.3581461 C32.5453502,46.3581461 29.2133584,43.0261544 29.2133584,38.9311848 L29.2133584,7.42696133 C29.2133584,3.33199175 32.5453502,0 36.6403197,0 L102.915084,0 C107.008122,0 110.340114,3.33199175 110.340114,7.42696133 L110.340114,38.9331164 C110.340114,43.0261544 107.008122,46.3581461 102.913153,46.3581461 L98.6424086,46.3581461 L81.7448643,56.4951274 Z M36.6403197,3.86317884 C34.6739617,3.86317884 33.0765373,5.4606033 33.0765373,7.42696133 L33.0765373,38.9331164 C33.0765373,40.8975428 34.6739617,42.4949673 36.6403197,42.4949673 L90.4853065,42.4949673 L88.714039,47.8107014 L97.5723081,42.4949673 L102.915084,42.4949673 C104.879511,42.4949673 106.476935,40.8975428 106.476935,38.9311848 L106.476935,7.42696133 C106.476935,5.4606033 104.879511,3.86317884 102.913153,3.86317884 L36.6403197,3.86317884 Z" id="Shape"></path>
                    <rect id="Rectangle" x="38.8713055" y="11.5895365" width="61.8108615" height="3.86317884"></rect>
                    <rect id="Rectangle" x="38.8713055" y="21.2474836" width="61.8108615" height="3.86317884"></rect>
                    <rect id="Rectangle" x="38.8713055" y="30.9054308" width="52.1529144" height="3.86317884"></rect>
                    <rect id="Rectangle" x="96.8189882" y="30.9054308" width="3.86317884" height="3.86317884"></rect>
                    <rect id="Rectangle" x="0.239517088" y="44.4265567" width="25.1106625" height="3.86317884"></rect>
                    <rect id="Rectangle" x="0.239517088" y="54.0845038" width="54.0845038" height="3.86317884"></rect>
                    <rect id="Rectangle" x="0.239517088" y="63.7424509" width="44.4265567" height="3.86317884"></rect>
                    <rect id="Rectangle" x="50.4608421" y="63.7424509" width="3.86317884" height="3.86317884"></rect>
                    <rect id="Rectangle" x="69.7767363" y="75.3319875" width="30.9054308" height="3.86317884"></rect>
                    <rect id="Rectangle" x="63.981968" y="84.9899346" width="36.700199" height="3.86317884"></rect>
                    <rect id="Rectangle" x="38.8713055" y="94.6478817" width="52.1529144" height="3.86317884"></rect>
                    <rect id="Rectangle" x="96.8189882" y="94.6478817" width="3.86317884" height="3.86317884"></rect>
                </g>
            </g>
        </g>
    </g>
</svg>