<?xml version="1.0" encoding="UTF-8"?>
<svg width="24px" height="24px" viewBox="0 0 24 24" version="1.1" xmlns="http://www.w3.org/2000/svg" xmlns:xlink="http://www.w3.org/1999/xlink">
    <!-- Generator: Sketch 63.1 (92452) - https://sketch.com -->
    <title>Icon/Featured@2x</title>
    <desc>Created with Sketch.</desc>
    <g id="Icon/Featured" stroke="none" stroke-width="1" fill="none" fill-rule="evenodd">
        <g id="local_play-24px">
            <polygon id="Path" points="0 0 24 0 24 24 0 24"></polygon>
            <path d="M18.3999991,12.5 C18.3999991,11.60625 19.1199991,10.875 20,10.875 L20,7.625 C20,6.73125 19.2799991,6 18.3999991,6 L5.5999999,6 C4.71999996,6 4.008,6.73125 4.008,7.625 L4.008,10.875 C4.88799995,10.875 5.5999999,11.60625 5.5999999,12.5 C5.5999999,13.39375 4.88799995,14.125 4,14.125 L4,17.375 C4,18.26875 4.71999996,19 5.5999999,19 L18.3999991,19 C19.2799991,19 20,18.26875 20,17.375 L20,14.125 C19.1199991,14.125 18.3999991,13.39375 18.3999991,12.5 Z M14.8639994,16.4 L11.9999995,14.53125 L9.13599969,16.4 L9.99999964,13.0525 L7.3679998,10.866875 L10.7599996,10.66375 L11.9999995,7.4625 L13.2319994,10.671875 L16.6239992,10.875 L13.9919994,13.060625 L14.8639994,16.4 Z" id="Shape" fill="#FFFFFF" fill-rule="nonzero"></path>
        </g>
    </g>
</svg>