<svg xmlns="http://www.w3.org/2000/svg" width="81.92" height="74.226" viewBox="0 0 81.92 74.226">
  <g id="notes" transform="translate(0 -0.007)">
    <path id="Path" d="M51.3,10.261V5.13A5.13,5.13,0,0,0,46.174,0H0V10.261Z" transform="translate(6.33 1.207)" fill="#dbd9dc"/>
    <path id="Path-2" data-name="Path" d="M5.131,0h0A5.131,5.131,0,0,0,0,5.13v51.3H10.261V5.13A5.13,5.13,0,0,0,5.131,0Z" transform="translate(1.2 1.207)" fill="#c9c6ca"/>
    <path id="Path-3" data-name="Path" d="M5.13,64.13H0V1.283A1.283,1.283,0,0,1,1.283,0H5.13Z" transform="translate(6.331 8.903)" fill="#dbd9dc"/>
    <rect id="Rectangle" width="46.173" height="64.131" transform="translate(11.461 8.903)" fill="#edebed"/>
    <path id="Path-4" data-name="Path" d="M7.377,35.275,0,39.374,4.1,32a6.416,6.416,0,0,1,1.071-1.42L35.37.376a1.283,1.283,0,0,1,1.814,0L39,2.19A1.283,1.283,0,0,1,39,4L8.8,34.2A6.412,6.412,0,0,1,7.377,35.275Z" transform="translate(41.347 21.144)" fill="#ffe17d"/>
    <path id="Path-5" data-name="Path" d="M5.17.272A6.414,6.414,0,0,0,4.1,1.692L0,9.069l7.377-4.1A6.408,6.408,0,0,0,8.8,3.9l.272-.272L5.442,0Z" transform="translate(41.347 51.449)" fill="#ffedb1"/>
    <path id="Path-6" data-name="Path" d="M3.628,6.724,6.348,4a1.283,1.283,0,0,0,0-1.814L4.535.376a1.283,1.283,0,0,0-1.814,0L0,3.1Z" transform="translate(73.997 21.144)" fill="#ff8087"/>
    <path id="Shape" d="M57.634,74.226H6.331a1.2,1.2,0,0,1-1.2-1.2V58.834H1.2a1.2,1.2,0,0,1-1.2-1.2V6.331A6.338,6.338,0,0,1,6.331,0H52.5a6.337,6.337,0,0,1,6.33,6.331V37.7L75.87,20.664a2.482,2.482,0,0,1,3.511,0l1.814,1.814a2.486,2.486,0,0,1,0,3.511l-30.2,30.2a7.621,7.621,0,0,1-1.686,1.272l-7.377,4.1A1.2,1.2,0,0,1,40.3,59.928l4.1-7.377a7.593,7.593,0,0,1,1.272-1.687L56.435,40.1v-30H55.069a1.2,1.2,0,1,1,0-2.4h1.365V6.331A3.935,3.935,0,0,0,52.5,2.4H11.288a6.265,6.265,0,0,1,1.373,3.93V7.7H49.938a1.2,1.2,0,1,1,0,2.4H12.66V65.329a1.2,1.2,0,1,1-2.4,0V10.1H7.613a.083.083,0,0,0-.083.083V71.825h2.731V70.461a1.2,1.2,0,1,1,2.4,0v1.364H56.435v-16.3a1.2,1.2,0,1,1,2.4,0v17.5A1.2,1.2,0,0,1,57.634,74.226Zm-10.8-21.04h0a5.24,5.24,0,0,0-.341.531l-2.059,3.705,3.706-2.058a5.32,5.32,0,0,0,.53-.341l-1.836-1.837ZM6.331,2.4A3.935,3.935,0,0,0,2.4,6.331v50.1H5.131V10.178A2.485,2.485,0,0,1,7.613,7.7h2.648V6.331A3.935,3.935,0,0,0,6.331,2.4ZM74,25.931h0L48.486,51.441l1.931,1.931,25.511-25.51L74,25.931Zm3.628-3.594a.076.076,0,0,0-.059.024l-1.873,1.872,1.931,1.931L79.5,24.292a.083.083,0,0,0,0-.117l-1.814-1.813A.074.074,0,0,0,77.625,22.337Z" transform="translate(0 0.007)"/>
    <path id="Path-7" data-name="Path" d="M1.2,2.4H29.417a1.2,1.2,0,1,0,0-2.4H1.2a1.2,1.2,0,0,0,0,2.4Z" transform="translate(19.239 20.529)"/>
    <path id="Path-8" data-name="Path" d="M1.2,2.4H29.417a1.2,1.2,0,1,0,0-2.4H1.2a1.2,1.2,0,0,0,0,2.4Z" transform="translate(19.239 26.942)"/>
    <path id="Path-9" data-name="Path" d="M1.2,2.4H29.417a1.2,1.2,0,1,0,0-2.4H1.2a1.2,1.2,0,0,0,0,2.4Z" transform="translate(19.239 33.355)"/>
    <path id="Path-10" data-name="Path" d="M1.2,2.4H29.417a1.2,1.2,0,1,0,0-2.4H1.2a1.2,1.2,0,0,0,0,2.4Z" transform="translate(19.239 39.768)"/>
    <path id="Path-11" data-name="Path" d="M1.2,2.4H21.722a1.2,1.2,0,1,0,0-2.4H1.2a1.2,1.2,0,0,0,0,2.4Z" transform="translate(19.239 46.181)"/>
  </g>
</svg>
