<svg xmlns="http://www.w3.org/2000/svg" width="71.983" height="69.914" viewBox="0 0 71.983 69.914">
  <g id="paint-roller" transform="translate(0 -0.071)" opacity="0.6">
    <path id="Shape" d="M65.135,69.914H65.1A7.241,7.241,0,0,1,59.972,67.8l-4.018-3.977a6.957,6.957,0,0,1-2.069-3.828,13.688,13.688,0,0,0-2.822-4.073l-2.185-2.164L47.52,55.1a1.111,1.111,0,0,1-.788.323,1.125,1.125,0,0,1-.787-.323l-2.486-2.46a1.1,1.1,0,0,1-.326-.779,1.089,1.089,0,0,1,.326-.779l2.72-2.69-5.155-5.1L12.944,55.455a1.091,1.091,0,0,1-.19.062A3.358,3.358,0,0,1,12,55.6a3.282,3.282,0,0,1-2.3-.95L1.067,46.11a3.592,3.592,0,0,1,0-5.11l3.617-3.576L2.23,35a1.094,1.094,0,0,1,0-1.558l1.61-1.592a2.722,2.722,0,0,1,.19-3.657L30.386,2.1a2.793,2.793,0,0,1,3.694-.189L35.69.322a1.122,1.122,0,0,1,1.573,0l9.105,9.014a1.093,1.093,0,0,1,0,1.557l-1.609,1.592a2.722,2.722,0,0,1-.191,3.657L18.214,42.229a2.776,2.776,0,0,1-3.694.189L12.911,44.01a1.119,1.119,0,0,1-1.573,0L8.849,41.547,6.82,43.555l5.666,5.608L40.568,37a2.943,2.943,0,0,1,3.243.8l6.538,6.469,2.566-2.542A1.128,1.128,0,0,1,53.7,41.4a1.114,1.114,0,0,1,.787.322l2.486,2.461a1.094,1.094,0,0,1,0,1.558l-1.358,1.344L57.8,49.251a13.881,13.881,0,0,0,4.115,2.792,7.09,7.09,0,0,1,3.867,2.048l4.161,4.118A6.9,6.9,0,0,1,71.98,63.3a6.846,6.846,0,0,1-6.845,6.617ZM63.651,55.157,57.035,61.7a6.1,6.1,0,0,0,.5.558l4.018,3.977a4.829,4.829,0,0,0,3.491,1.469,4.885,4.885,0,0,0,3.1-1.115,4.647,4.647,0,0,0,.231-6.831l-4.16-4.118a5.834,5.834,0,0,0-.564-.489Zm-9.6-6.512L50.453,52.2l2.186,2.162c.654.646,3.076,3.469,3.423,5.189L61.475,54.2c-1.716-.339-4.584-2.737-5.243-3.385l-2.186-2.165ZM6.255,38.983,2.641,42.556a1.4,1.4,0,0,0,0,2L11.275,53.1a1.03,1.03,0,0,0,.732.3,1.043,1.043,0,0,0,.159-.012L40.832,40.973a1.122,1.122,0,0,1,1.232.229l5.7,5.63,1.016-1.006-6.538-6.47A.993.993,0,0,0,41.589,39a.435.435,0,0,0-.162.031L12.684,51.485a1.122,1.122,0,0,1-1.233-.23L4.458,44.334a1.089,1.089,0,0,1-.326-.778,1.1,1.1,0,0,1,.326-.779l2.814-2.787L6.255,38.983ZM53.7,44.062l-2.569,2.543-2.594,2.567-2.718,2.692.913.9,7.883-7.8-.915-.9ZM5.387,33.425l-.8.791,7.536,7.458.8-.791L5.387,33.425ZM32.351,3.5a.556.556,0,0,0-.392.16L5.6,29.746a.548.548,0,0,0,0,.778L15.855,40.67a.561.561,0,0,0,.786,0L43,14.587a.546.546,0,0,0,0-.778L32.744,3.663A.556.556,0,0,0,32.351,3.5Zm4.124-.844-.8.792,7.538,7.458.8-.792L36.475,2.659ZM65.113,66.194a3.068,3.068,0,0,1-2.173-.891,3.008,3.008,0,0,1,0-4.3,3.1,3.1,0,0,1,4.346,0,3.021,3.021,0,0,1,0,4.3A3.07,3.07,0,0,1,65.113,66.194Zm-.6-3.636h0a.83.83,0,0,0,0,1.187.854.854,0,0,0,1.2,0,.833.833,0,0,0,0-1.187.854.854,0,0,0-1.2,0ZM12.779,33.48h0l-1.573-1.557,3.738-3.7,1.573,1.558-3.737,3.7ZM10.172,30.9h0L8.6,29.344l11.927-11.8L22.1,19.1,10.173,30.9Z" transform="translate(0 0.071)"/>
  </g>
</svg>
