<svg id="service" xmlns="http://www.w3.org/2000/svg" width="24" height="24" viewBox="0 0 24 24">
  <g id="Group_18" data-name="Group 18">
    <g id="hand_1_" data-name="hand (1)" transform="translate(1 1)">
      <path id="Combined_Shape" data-name="Combined Shape" d="M6.712,22.358.094,15.74a.319.319,0,0,1,0-.452l1.521-1.522a.319.319,0,0,1,.452,0l6.619,6.619a.32.32,0,0,1,0,.452L7.163,22.358a.318.318,0,0,1-.451,0ZM16.881,18.6a2.783,2.783,0,0,1-.249-2.744.4.4,0,0,0-.081-.446l-1.085-1.084,1.011-1.011L17.562,14.4a.4.4,0,0,0,.446.081,2.793,2.793,0,0,1,3.12.564,2.763,2.763,0,0,1,.808,2.176l-.723-.728a.4.4,0,0,0-.352-.112l-1.715.3a.4.4,0,0,0-.32.314l-.333,1.66a.4.4,0,0,0,.109.359l.767.768q-.1.008-.2.008A2.784,2.784,0,0,1,16.881,18.6ZM3.289,13.858a4.788,4.788,0,0,0,1.146-3.11V10a1.315,1.315,0,0,1,.385-.942L6.942,6.927l1.719,1.72-.042.042c-.024.023-.048.047-.073.069a1.9,1.9,0,0,1-2.079.286l-.031-.014a.4.4,0,1,0-.341.719l.031.014a2.667,2.667,0,0,0,2.958-.418l.1-.093,3.19-3.19a.606.606,0,1,1,.858.858l-.05.05L10.794,9.354a.4.4,0,1,0,.563.563l2.384-2.385a.606.606,0,0,1,.857.859L13.99,9l-1.775,1.775a.4.4,0,0,0,.563.563l1.776-1.776a.606.606,0,0,1,.856.859l-1.775,1.775a.4.4,0,1,0,.563.563l1.169-1.168.15-.15a.606.606,0,1,1,.857.857l-4.158,4.159a11.4,11.4,0,0,1-3.12,2.215l-.673.325ZM6.533,5.393a.4.4,0,0,0-.446-.08,2.793,2.793,0,0,1-3.12-.564,2.764,2.764,0,0,1-.808-2.176l.723.727a.4.4,0,0,0,.351.112l1.715-.3a.4.4,0,0,0,.321-.313L5.6,1.135a.4.4,0,0,0-.109-.36L4.726.007A2.783,2.783,0,0,1,7.463,3.936a.4.4,0,0,0,.081.447l2.69,2.691-1.01,1.01Z" transform="translate(0 0.029)" fill="#fff"/>
    </g>
    <rect id="Rectangle" width="24" height="24" fill="none"/>
  </g>
</svg>
