<svg xmlns="http://www.w3.org/2000/svg" width="81.92" height="66.529" viewBox="0 0 81.92 66.529">
  <g id="shop-2" transform="translate(0 -0.016)">
    <rect id="Rectangle" width="69.259" height="43.608" transform="translate(6.33 21.736)" fill="#edebed"/>
    <path id="Path" d="M0,10.34a13.691,13.691,0,0,0,4.81.883,13.851,13.851,0,0,0,9.94-4.241,13.851,13.851,0,0,0,9.94,4.241,13.851,13.851,0,0,0,9.94-4.241,13.851,13.851,0,0,0,9.94,4.241,13.851,13.851,0,0,0,9.94-4.241,13.851,13.851,0,0,0,9.94,4.241,13.691,13.691,0,0,0,4.81-.883V0H0Z" transform="translate(6.33 21.737)" fill="#eaeaea"/>
    <path id="Path-2" data-name="Path" d="M79.52,17.956a9.942,9.942,0,0,1-18.934,4.237,1.034,1.034,0,0,0-1.891,0,9.944,9.944,0,0,1-17.988,0,1.034,1.034,0,0,0-1.891,0,9.944,9.944,0,0,1-17.988,0,1.034,1.034,0,0,0-1.891,0A9.942,9.942,0,0,1,0,17.956L9.522,1.292A2.565,2.565,0,0,1,11.749,0H67.77A2.565,2.565,0,0,1,70,1.292Z" transform="translate(1.2 1.216)" fill="#dc4655"/>
    <path id="Path-3" data-name="Path" d="M67.771,0H11.749A2.565,2.565,0,0,0,9.522,1.292L0,17.956H79.52L70,1.292A2.565,2.565,0,0,0,67.771,0Z" transform="translate(1.2 1.216)" fill="#e6646e"/>
    <g id="Group" transform="translate(12.64 34.56)">
      <rect id="Rectangle-2" data-name="Rectangle" width="15.39" height="30.782" transform="translate(41.146 0.003)" fill="#fff"/>
      <rect id="Rectangle-3" data-name="Rectangle" width="34.63" height="24.37" transform="translate(0.102 0.003)" fill="#fff"/>
    </g>
    <g id="Group-2" data-name="Group" transform="translate(16.48 38.4)">
      <path id="Path-4" data-name="Path" d="M14.328,0H0V14.328Z" transform="translate(0.111 0.01)" fill="#eaeaea"/>
      <path id="Path-5" data-name="Path" d="M0,16.673H4.234L20.908,0H16.674Z" transform="translate(2.289 0.01)" fill="#eaeaea"/>
      <path id="Path-6" data-name="Path" d="M12.826,0,0,12.826H12.826Z" transform="translate(14.219 3.858)" fill="#eaeaea"/>
      <path id="Path-7" data-name="Path" d="M7.7,2.254V0H0V9.949Z" transform="translate(41.154 0.01)" fill="#eaeaea"/>
      <path id="Path-8" data-name="Path" d="M0,7.7V8.978H7.7V0Z" transform="translate(41.154 7.706)" fill="#eaeaea"/>
    </g>
    <path id="Shape" d="M78.155,66.529H3.765a1.2,1.2,0,1,1,0-2.4H5.13v-35.6A11.106,11.106,0,0,1,0,19.156a1.2,1.2,0,0,1,.158-.6L9.68,1.9A3.773,3.773,0,0,1,12.949,0H68.971a3.773,3.773,0,0,1,3.269,1.9l9.523,16.663a1.206,1.206,0,0,1,.158.6,11.105,11.105,0,0,1-5.13,9.372v35.6h1.365a1.2,1.2,0,0,1,0,2.4Zm-23.17-6.412V64.13H67.977V60.116Zm-1.2-26.77H69.177a1.2,1.2,0,0,1,1.2,1.2V64.129H74.39V29.693a11.143,11.143,0,0,1-13.55-5.51A11.207,11.207,0,0,1,56.805,28.6a11.122,11.122,0,0,1-11.811,0,11.205,11.205,0,0,1-4.035-4.416A11.207,11.207,0,0,1,36.926,28.6a11.123,11.123,0,0,1-11.811,0,11.205,11.205,0,0,1-4.035-4.416A11.15,11.15,0,0,1,11.14,30.3a11.075,11.075,0,0,1-3.61-.6V64.129H52.586V34.547A1.2,1.2,0,0,1,53.786,33.347Zm1.2,2.4V57.716H67.977V35.747Zm7.139-15.391a8.74,8.74,0,0,0,17.312,0H75.589a1.2,1.2,0,0,1,0-2.4h3.063l-8.5-14.868A1.366,1.366,0,0,0,68.971,2.4H12.949a1.369,1.369,0,0,0-1.185.688l-8.5,14.868H6.33a1.2,1.2,0,0,1,0,2.4H2.483a8.74,8.74,0,0,0,17.312,0H11.461a1.2,1.2,0,0,1,0-2.4h59a1.2,1.2,0,0,1,0,2.4Zm-19.88,0a8.739,8.739,0,0,0,17.311,0Zm-19.88,0a8.739,8.739,0,0,0,17.311,0Z" transform="translate(0 0.016)"/>
    <path id="Shape-2" data-name="Shape" d="M35.83,26.769H1.2a1.2,1.2,0,0,1-1.2-1.2V1.2A1.2,1.2,0,0,1,1.2,0H35.83a1.2,1.2,0,0,1,1.2,1.2V25.569A1.2,1.2,0,0,1,35.83,26.769ZM2.4,2.4V24.369H34.63V2.4Z" transform="translate(11.543 33.363)"/>
  </g>
</svg>
