<svg xmlns="http://www.w3.org/2000/svg" width="77" height="65.928" viewBox="0 0 77 65.928">
  <g id="excavator" transform="translate(0 -0.536)" opacity="0.6">
    <path id="Shape" d="M34.82,8.932a4.408,4.408,0,0,1-4.279-3.4H8.694A4.391,4.391,0,0,1,3.881,8.9a4.473,4.473,0,0,1,0-8.867A4.393,4.393,0,0,1,8.694,3.4H30.542a4.405,4.405,0,0,1,8.694,1.066A4.418,4.418,0,0,1,34.82,8.932Zm0-6.8a2.334,2.334,0,1,0,2.3,2.334A2.33,2.33,0,0,0,34.82,2.133Zm-30.4,0a2.278,2.278,0,0,0-1.631.684,2.35,2.35,0,0,0-.5,2.543A2.3,2.3,0,0,0,6.72,4.466,2.328,2.328,0,0,0,5.3,2.309,2.267,2.267,0,0,0,4.416,2.132Z" transform="translate(5.071 52.392)"/>
    <path id="Shape-2" data-name="Shape" d="M39.89,65.928H9.487a9.606,9.606,0,0,1,0-19.211H14.3V41.2H4.861a1.063,1.063,0,0,1-1.053-1.067V26.477a1.074,1.074,0,0,1,.308-.754,1.049,1.049,0,0,1,.742-.311H17.818l6.027-8.089a1.056,1.056,0,0,1,.842-.426h6.293V9.861a1.1,1.1,0,0,1,.312-.768L39.962.317A1.078,1.078,0,0,1,40.72,0H75.947a1.053,1.053,0,0,1,.743.309A1.066,1.066,0,0,1,77,1.06v53.7a1.067,1.067,0,0,1-.308.754,1.04,1.04,0,0,1-.745.312H60.457a1.069,1.069,0,0,1-.908-.524L53.533,44.95a1.129,1.129,0,0,1-.144-.542v-5.2a1.063,1.063,0,0,1,.308-.755,1.048,1.048,0,0,1,.741-.311h.2A4.7,4.7,0,0,1,59.3,42.862v.481h9.577V8.222H43.644L39.1,12.815V16.9h5.414a1.049,1.049,0,0,1,.745.315,1.08,1.08,0,0,1,.308.757V40.133A1.063,1.063,0,0,1,44.516,41.2H35.083v5.518H39.89a9.606,9.606,0,0,1,0,19.211ZM34.746,60.02A1.061,1.061,0,0,1,35.8,61.086V63.8h4.09a7.474,7.474,0,0,0,0-14.947H35.083v2.443a1.053,1.053,0,1,1-2.105,0V48.849H30.409v2.443a1.053,1.053,0,1,1-2.106,0V48.849H25.741v2.443a1.053,1.053,0,1,1-2.105,0V48.849H21.073v2.443a1.053,1.053,0,1,1-2.105,0V48.849H16.4v2.443a1.053,1.053,0,1,1-2.105,0V48.849H9.487a7.385,7.385,0,0,0-6.393,3.737,7.576,7.576,0,0,0,0,7.474A7.386,7.386,0,0,0,9.487,63.8h4.09V61.086a1.053,1.053,0,1,1,2.105,0V63.8h2.924V61.086a1.053,1.053,0,1,1,2.105,0V63.8h2.924V61.086a1.053,1.053,0,1,1,2.105,0V63.8h2.923V61.086a1.053,1.053,0,1,1,2.106,0V63.8h2.923V61.086A1.061,1.061,0,0,1,34.746,60.02ZM59.29,50.652,61.059,53.7H74.894V45.474H56.282l1.769,3.046H66.07a1.066,1.066,0,0,1,0,2.132H59.29ZM16.4,41.2v5.518H32.978V41.2H16.4ZM70.985,8.222V43.343h3.91V8.222Zm-15.491,32.2v2.924h1.7v-.481A2.6,2.6,0,0,0,55.494,40.419ZM5.913,34.609v4.459h37.55v-4.19H27.437a1.063,1.063,0,0,1-1.053-1.066V24.285a1.063,1.063,0,0,1,1.053-1.066H43.463v-4.19H25.212l-6.028,8.095a1.063,1.063,0,0,1-.841.42H5.913v4.934h13.6a1.066,1.066,0,0,1,0,2.132ZM28.49,25.35v7.394H43.463V25.35Zm4.6-13.906V16.9H37V13.09Zm7.255-8.5L33.892,9.478l3.91,1.638L41.965,6.9,40.341,2.942Zm30.644-.81V6.091h3.91V2.132Zm-28.695,0h0l1.618,3.959h24.97V2.132H42.29Z" transform="translate(0 0.536)"/>
  </g>
</svg>
