<?xml version="1.0" encoding="UTF-8"?>
<svg width="60px" height="60px" viewBox="0 0 60 60" version="1.1" xmlns="http://www.w3.org/2000/svg" xmlns:xlink="http://www.w3.org/1999/xlink">
    <title>location-round</title>
    <g id="Symbols" stroke="none" stroke-width="1" fill="none" fill-rule="evenodd">
        <g id="location-round">
            <circle id="Oval" cx="30" cy="30" r="30"></circle>
            <g id="location_on-24px" transform="translate(5.000000, 7.000000)">
                <polygon id="Path" points="0 0 50.3999977 0 50.3999977 50.3999977 0 50.3999977"></polygon>
                <path d="M25.1999989,4.19999981 C17.0729992,4.19999981 10.4999995,10.7729995 10.4999995,18.8999991 C10.4999995,27.6569987 19.7819991,39.7319982 23.6039989,44.330998 C24.4439989,45.3389979 25.9769988,45.3389979 26.8169988,44.330998 C30.6179986,39.7319982 39.8999982,27.6569987 39.8999982,18.8999991 C39.8999982,10.7729995 33.3269985,4.19999981 25.1999989,4.19999981 Z M25.1999989,24.1499994 C22.301999,24.1499994 19.9499991,21.797999 19.9499991,18.8999991 C19.9499991,16.0019993 22.301999,13.6499994 25.1999989,13.6499994 C28.0979987,13.6499994 30.4499991,16.0019993 30.4499991,18.8999991 C30.4499991,21.797999 28.0979987,24.1499994 25.1999989,24.1499994 Z" id="Shape" fill="#FFC20F" fill-rule="nonzero"></path>
            </g>
        </g>
    </g>
</svg>