<svg xmlns="http://www.w3.org/2000/svg" width="100" height="81.212" viewBox="0 0 100 81.212">
  <g id="shop" transform="translate(0 -0.019)">
    <path id="Shape" d="M95.4,81.212H4.6a1.465,1.465,0,1,1,0-2.93H6.262V34.825A13.741,13.741,0,0,1,1.72,30,13.572,13.572,0,0,1,0,23.384a1.471,1.471,0,0,1,.193-.726L11.817,2.316A4.606,4.606,0,0,1,15.808,0H84.193a4.609,4.609,0,0,1,3.991,2.316L99.807,22.658a1.471,1.471,0,0,1,.193.726A13.572,13.572,0,0,1,98.28,30a13.74,13.74,0,0,1-4.542,4.829V78.283H95.4a1.465,1.465,0,1,1,0,2.93ZM65.657,40.707H84.444a1.467,1.467,0,0,1,1.465,1.465V78.283h4.9V36.246a13.563,13.563,0,0,1-11.616-1.335,13.674,13.674,0,0,1-4.924-5.391,13.68,13.68,0,0,1-4.925,5.391A13.6,13.6,0,0,1,50,29.52a13.68,13.68,0,0,1-4.925,5.391A13.6,13.6,0,0,1,25.733,29.52a13.68,13.68,0,0,1-4.925,5.391A13.562,13.562,0,0,1,9.193,36.246V78.283h55V42.172A1.467,1.467,0,0,1,65.657,40.707Zm1.464,32.677v4.9H82.979v-4.9Zm0-29.748V70.455H82.979V43.637Zm8.714-18.788a10.669,10.669,0,0,0,21.134,0h-4.7a1.465,1.465,0,1,1,0-2.93h3.739L85.64,3.769a1.671,1.671,0,0,0-1.446-.84H15.808a1.671,1.671,0,0,0-1.447.84L3.989,21.92H7.727a1.465,1.465,0,1,1,0,2.93H3.03a10.669,10.669,0,0,0,21.134,0H13.991a1.465,1.465,0,1,1,0-2.93H86.01a1.465,1.465,0,1,1,0,2.93Zm-24.267,0a10.668,10.668,0,0,0,21.131,0Zm-24.268,0a10.667,10.667,0,0,0,21.131,0Z" transform="translate(0 0.019)" fill="#727272"/>
    <path id="Shape-2" data-name="Shape" d="M43.737,32.677H1.465A1.467,1.467,0,0,1,0,31.212V1.465A1.467,1.467,0,0,1,1.465,0H43.737A1.467,1.467,0,0,1,45.2,1.465V31.212A1.467,1.467,0,0,1,43.737,32.677ZM2.929,2.93V29.748H42.273V2.93Z" transform="translate(14.091 40.726)" fill="#727272"/>
  </g>
</svg>
