<?xml version="1.0" encoding="UTF-8"?>
<svg width="1440px" height="280px" viewBox="0 0 1440 280" version="1.1" xmlns="http://www.w3.org/2000/svg" xmlns:xlink="http://www.w3.org/1999/xlink">
    <!-- Generator: Sketch 63.1 (92452) - https://sketch.com -->
    <title>Group 2</title>
    <desc>Created with Sketch.</desc>
    <g id="Final-User-design-_-1" stroke="none" stroke-width="1" fill="none" fill-rule="evenodd">
        <g id="034" transform="translate(0.000000, -744.000000)" fill-rule="nonzero" stroke="#CBCBCB">
            <g id="Group-2" transform="translate(-61.000000, 745.000000)">
                <polygon id="Path-Copy" opacity="0.5" transform="translate(781.000000, 251.941186) scale(-1, 1) translate(-781.000000, -251.941186) " points="1501 164.047887 1459.95097 164.047887 1459.95097 56.0565644 1424.6488 56.0565644 1424.6488 164.047887 1401.66135 164.047887 1401.66135 70.8950667 1365.5382 70.8950667 1365.5382 116.234935 1280.15621 116.234935 1280.15621 146.736301 1239.10718 146.736301 1239.10718 58.5296481 1202.98404 58.5296481 1202.98404 83.2604853 1177.53364 83.2604853 1177.53364 36.2718946 1166.86089 36.2718946 1166.86089 99.7477101 1149.6203 99.7477101 1149.6203 36.2718946 1134.02166 36.2718946 1134.02166 16.4872248 1117.60205 16.4872248 1117.60205 36.2718946 1105.28734 36.2718946 1105.28734 71.7194279 1088.04675 71.7194279 1088.04675 36.2718946 1074.09008 36.2718946 1074.09008 116.234935 1056.84949 116.234935 1056.84949 38.7449783 1039.60889 38.7449783 1039.60889 116.234935 1031.39909 116.234935 1031.39909 225.87498 1022.3683 225.87498 1022.3683 173.115861 981.31927 173.115861 981.31927 64.3001768 945.196123 64.3001768 945.196123 173.115861 922.208666 173.115861 922.208666 79.1386791 886.906499 79.1386791 886.906499 173.115861 801.524515 173.115861 801.524515 91.5040977 759.654504 91.5040977 759.654504 9.89233489 724.352338 9.89233489 724.352338 91.5040977 698.080958 91.5040977 698.080958 45.3398682 687.40821 45.3398682 687.40821 37.9206171 670.988597 37.9206171 670.988597 45.3398682 655.389966 45.3398682 655.389966 24.7308372 638.149373 24.7308372 638.149373 45.3398682 626.655644 45.3398682 626.655644 10.7166961 609.415051 10.7166961 609.415051 45.3398682 595.458381 45.3398682 595.458381 124.478547 578.217788 124.478547 578.217788 46.9885907 560.977195 46.9885907 560.977195 124.478547 551.946408 124.478547 551.946408 163.223526 528.958951 163.223526 528.958951 54.4078419 492.835804 54.4078419 492.835804 163.223526 469.848347 163.223526 469.848347 69.2463442 434.54618 69.2463442 434.54618 163.223526 349.164196 163.223526 349.164196 81.6117628 307.294185 81.6117628 307.294185 0 271.992018 0 271.992018 81.6117628 245.720639 81.6117628 245.720639 35.4475333 235.868871 35.4475333 235.868871 28.0282822 218.628278 28.0282822 218.628278 35.4475333 203.029647 35.4475333 203.029647 14.8385023 185.789054 14.8385023 185.789054 35.4475333 174.295325 35.4475333 174.295325 0.824361241 157.054732 0.824361241 157.054732 35.4475333 143.098062 35.4475333 143.098062 114.586212 125.857469 114.586212 125.857469 37.0962558 108.616876 37.0962558 108.616876 114.586212 99.5860889 114.586212 99.5860889 225.050619 61 225.050619 61 503.882372 1501 503.882372"></polygon>
                <path d="M0,410 L0,257.270776 L21.1419612,257.270776 L21.1419612,196.764241 L26.0900798,196.764241 L26.0900798,154.319359 L35.536488,154.319359 L35.536488,196.764241 L44.9828962,196.764241 L44.9828962,153.416276 L52.6299886,153.416276 L52.6299886,134.451541 L62.0763968,134.451541 L62.0763968,153.416276 L68.3740023,153.416276 L68.3740023,142.127743 L77.8204105,142.127743 L77.8204105,153.416276 L86.3671608,153.416276 L86.3671608,149.352404 L95.813569,149.352404 L95.813569,153.416276 L101.211517,153.416276 L101.211517,178.702589 L115.606043,178.702589 L115.606043,134 L134.948689,134 L134.948689,178.702589 L157.889966,178.702589 L157.889966,223.405178 L204.672178,223.405178 L204.672178,171.929469 L224.014823,171.929469 L224.014823,223.405178 L236.610034,223.405178 L236.610034,163.801726 L256.402509,163.801726 L256.402509,223.405178 L268.997719,223.405178 L268.997719,202.182737 L273.945838,202.182737 L273.945838,159.737854 L283.392246,159.737854 L283.392246,202.182737 L292.838655,202.182737 L292.838655,158.834772 L300.485747,158.834772 L300.485747,139.870037 L309.932155,139.870037 L309.932155,158.834772 L316.229761,158.834772 L316.229761,147.546239 L325.676169,147.546239 L325.676169,158.834772 L334.222919,158.834772 L334.222919,154.7709 L343.219498,154.7709 L343.219498,158.834772 L349.067275,158.834772 L349.067275,184.121085 L363.461802,184.121085 L363.461802,139.418496 L382.804447,139.418496 L382.804447,184.121085 L405.745724,184.121085 L405.745724,228.823673 L452.527936,228.823673 L452.527936,177.347965 L471.870582,177.347965 L471.870582,228.823673 L484.465792,228.823673 L484.465792,169.220222 L504.258267,169.220222 L504.258267,228.823673 L526.749715,228.823673 L526.749715,257.722317 L531.697834,257.722317 L531.697834,197.667324 L536.196123,197.667324 L536.196123,155.222441 L545.642531,155.222441 L545.642531,197.667324 L555.08894,197.667324 L555.08894,153.867817 L562.736032,153.867817 L562.736032,173.284093 L572.18244,173.284093 L572.18244,153.867817 L578.929875,153.867817 L578.929875,143.030826 L587.926454,143.030826 L587.926454,153.867817 L596.473204,153.867817 L596.473204,188.636498 L605.919612,188.636498 L605.919612,153.867817 L611.767389,153.867817 L611.767389,179.605672 L625.712087,179.605672 L625.712087,166.059432 L645.504561,166.059432 L645.504561,214.374352 L667.996009,214.374352 L667.996009,197.667324 L714.778221,197.667324 L714.778221,172.832552 L734.570696,172.832552 L734.570696,223.856719 L747.165906,223.856719 L747.165906,164.704809 L766.508552,164.704809 L766.508552,223.856719 L789,223.856719 L789,257.27 L794.141961,257.270776 L794.141961,196.764241 L799.09008,196.764241 L799.09008,154.319359 L808.536488,154.319359 L808.536488,196.764241 L817.982896,196.764241 L817.982896,153.416276 L825.629989,153.416276 L825.629989,134.451541 L835.076397,134.451541 L835.076397,153.416276 L841.374002,153.416276 L841.374002,142.127743 L850.82041,142.127743 L850.82041,153.416276 L859.367161,153.416276 L859.367161,149.352404 L868.813569,149.352404 L868.813569,153.416276 L874.211517,153.416276 L874.211517,178.702589 L888.606043,178.702589 L888.606043,134 L907.948689,134 L907.948689,178.702589 L930.889966,178.702589 L930.889966,223.405178 L977.672178,223.405178 L977.672178,171.929469 L997.014823,171.929469 L997.014823,223.405178 L1009.61003,223.405178 L1009.61003,163.801726 L1029.40251,163.801726 L1029.40251,223.405178 L1041.99772,223.405178 L1041.99772,202.182737 L1046.94584,202.182737 L1046.94584,159.737854 L1056.39225,159.737854 L1056.39225,202.182737 L1065.83865,202.182737 L1065.83865,158.834772 L1073.48575,158.834772 L1073.48575,139.870037 L1082.93216,139.870037 L1082.93216,158.834772 L1089.22976,158.834772 L1089.22976,147.546239 L1098.67617,147.546239 L1098.67617,158.834772 L1107.22292,158.834772 L1107.22292,154.7709 L1116.2195,154.7709 L1116.2195,158.834772 L1122.06727,158.834772 L1122.06727,184.121085 L1136.4618,184.121085 L1136.4618,139.418496 L1155.80445,139.418496 L1155.80445,184.121085 L1178.74572,184.121085 L1178.74572,228.823673 L1225.52794,228.823673 L1225.52794,177.347965 L1244.87058,177.347965 L1244.87058,228.823673 L1257.46579,228.823673 L1257.46579,169.220222 L1277.25827,169.220222 L1277.25827,228.823673 L1299.74971,228.823673 L1299.74971,257.722317 L1304.69783,257.722317 L1304.69783,197.667324 L1309.19612,197.667324 L1309.19612,155.222441 L1318.64253,155.222441 L1318.64253,197.667324 L1328.08894,197.667324 L1328.08894,153.867817 L1335.73603,153.867817 L1335.73603,173.284093 L1345.18244,173.284093 L1345.18244,153.867817 L1351.92987,153.867817 L1351.92987,143.030826 L1360.92645,143.030826 L1360.92645,153.867817 L1369.4732,153.867817 L1369.4732,188.636498 L1378.91961,188.636498 L1378.91961,153.867817 L1384.76739,153.867817 L1384.76739,179.605672 L1398.71209,179.605672 L1398.71209,166.059432 L1418.50456,166.059432 L1418.50456,214.374352 L1440.99601,214.374352 L1440.99601,197.667324 L1487.77822,197.667324 L1487.77822,172.832552 L1507.5707,172.832552 L1507.5707,223.856719 L1520.16591,223.856719 L1520.16591,164.704809 L1539.50855,164.704809 L1539.50855,223.856719 L1562,223.856719 L1562,410 L0,410 Z" id="Combined-Shape" fill="#FFFFFF"></path>
            </g>
        </g>
    </g>
</svg>