<?xml version="1.0" encoding="UTF-8"?>
<svg width="120px" height="120px" viewBox="0 0 120 120" version="1.1" xmlns="http://www.w3.org/2000/svg" xmlns:xlink="http://www.w3.org/1999/xlink">
    <!-- Generator: Sketch 63.1 (92452) - https://sketch.com -->
    <title>boxes (1)</title>
    <desc>Created with Sketch.</desc>
    <g id="Page-1" stroke="none" stroke-width="1" fill="none" fill-rule="evenodd">
        <g id="0069" transform="translate(-660.000000, -336.000000)" fill-rule="nonzero">
            <g id="boxes-(1)" transform="translate(660.000000, 336.000000)">
                <g id="Group" transform="translate(7.741935, 3.870968)" fill="#CBCBCB">
                    <polygon id="Path" points="46.4516101 69.6774152 19.3548376 69.6774152 19.3548376 58.0645127 46.4516101 58.0645127"></polygon>
                    <polygon id="Path" points="65.8064477 11.6129025 38.7096751 11.6129025 38.7096751 0 65.8064477 0"></polygon>
                    <polygon id="Path" points="30.9677401 108.38709 0 108.38709 0 89.0322528 30.9677401 89.0322528"></polygon>
                    <polygon id="Path" points="50.3225776 50.3225776 19.3548376 50.3225776 19.3548376 30.9677401 50.3225776 30.9677401"></polygon>
                    <polygon id="Path" points="104.516123 108.38709 77.4193502 108.38709 77.4193502 89.0322528 104.516123 89.0322528"></polygon>
                </g>
                <polygon id="Path" fill="#000000" points="34.8387076 65.8064477 38.7096751 65.8064477 38.7096751 73.5483827 34.8387076 73.5483827"></polygon>
                <polygon id="Path" fill="#000000" points="42.5806426 65.8064477 46.4516101 65.8064477 46.4516101 73.5483827 42.5806426 73.5483827"></polygon>
                <path d="M114.193542,58.0645127 L100.288868,58.0645127 C100.506231,57.4568388 100.645155,56.8104174 100.645155,56.1290289 L100.645155,5.80645127 C100.645155,2.60553154 98.0396238,0 94.838704,0 L25.1612888,0 C21.9603691,0 19.3548376,2.60553154 19.3548376,5.80645127 L19.3548376,56.1290289 C19.3548376,56.8104174 19.4937615,57.4568388 19.7111253,58.0645127 L5.80645127,58.0645127 C2.60553154,58.0645127 -1.37524392e-14,60.6700442 -1.37524392e-14,63.8709639 L-1.37524392e-14,114.193542 C-1.37524392e-14,117.394461 2.60553154,120 5.80645127,120 L114.193542,120 C117.394461,120 120,117.394461 120,114.193542 L120,63.8709639 C120,60.6700442 117.394461,58.0645127 114.193542,58.0645127 Z M23.2258051,56.1290289 L23.2258051,5.80645127 C23.2258051,4.7404231 24.0952607,3.87096751 25.1612888,3.87096751 L94.838704,3.87096751 C95.9047322,3.87096751 96.7741878,4.7404231 96.7741878,5.80645127 L96.7741878,56.1290289 C96.7741878,57.1950571 95.9047322,58.0645127 94.838704,58.0645127 L25.1612888,58.0645127 C24.0952607,58.0645127 23.2258051,57.1950571 23.2258051,56.1290289 Z M73.5483827,116.129025 L5.80645127,116.129025 C4.7404231,116.129025 3.87096751,115.26146 3.87096751,114.193542 L3.87096751,63.8709639 C3.87096751,62.8030458 4.7404231,61.9354802 5.80645127,61.9354802 L75.4838665,61.9354802 C76.5498946,61.9354802 77.4193502,62.8030458 77.4193502,63.8709639 L77.4193502,114.193542 C77.4193502,115.26146 76.5498946,116.129025 75.4838665,116.129025 L73.5483827,116.129025 Z M116.129025,114.193542 C116.129025,115.26146 115.25957,116.129025 114.193542,116.129025 L80.93403,116.129025 C81.1513938,115.521351 81.2903177,114.87493 81.2903177,114.193542 L81.2903177,63.8709639 C81.2903177,63.1895754 81.1513938,62.5431541 80.93403,61.9354802 L114.193542,61.9354802 C115.25957,61.9354802 116.129025,62.8030458 116.129025,63.8709639 L116.129025,114.193542 Z" id="Shape" fill="#000000"></path>
                <polygon id="Path" fill="#000000" points="15.48387 100.645155 30.9677401 100.645155 30.9677401 104.516123 15.48387 104.516123"></polygon>
                <polygon id="Path" fill="#000000" points="54.1935452 7.74193502 58.0645127 7.74193502 58.0645127 15.48387 54.1935452 15.48387"></polygon>
                <polygon id="Path" fill="#000000" points="61.9354802 7.74193502 65.8064477 7.74193502 65.8064477 15.48387 61.9354802 15.48387"></polygon>
                <polygon id="Path" fill="#000000" points="34.8387076 42.5806426 50.3225776 42.5806426 50.3225776 46.4516101 34.8387076 46.4516101"></polygon>
                <polygon id="Path" fill="#000000" points="92.9032203 100.645155 104.516123 100.645155 104.516123 104.516123 92.9032203 104.516123"></polygon>
            </g>
        </g>
    </g>
</svg>