<?xml version="1.0" encoding="UTF-8"?>
<svg width="108px" height="129px" viewBox="0 0 108 129" version="1.1" xmlns="http://www.w3.org/2000/svg" xmlns:xlink="http://www.w3.org/1999/xlink">
    <!-- Generator: Sketch 63.1 (92452) - https://sketch.com -->
    <title>curriculum</title>
    <desc>Created with Sketch.</desc>
    <g id="Page-1" stroke="none" stroke-width="1" fill="none" fill-rule="evenodd">
        <g id="0070" transform="translate(-666.000000, -331.000000)" fill-rule="nonzero">
            <g id="curriculum" transform="translate(666.000000, 331.000000)">
                <polygon id="Path" fill="#CBCBCB" points="20.769229 110.076914 99.6922991 110.076914 99.6922991 120.461528 20.769229 120.461528"></polygon>
                <path d="M60.230764,103.846145 C43.0525428,103.846145 29.0769206,89.8705227 29.0769206,72.6923014 C29.0769206,55.5140802 43.0525428,41.538458 60.230764,41.538458 C77.4089853,41.538458 91.3846075,55.5140802 91.3846075,72.6923014 C91.3846075,89.8705227 77.4089853,103.846145 60.230764,103.846145 Z" id="Path" fill="#CBCBCB"></path>
                <path d="M95.5384533,26.1400218 L95.5384533,8.30769159 L66.2516093,8.30769159 C65.2861647,3.57478178 61.0907399,0 56.0769182,0 C51.0630966,0 46.8676718,3.57478178 45.9022272,8.30769159 L0,8.30769159 L0,116.307682 L12.4615374,116.307682 L12.4615374,128.76922 L108,128.76922 L108,38.6015592 L95.5384533,26.1400218 Z M91.3846075,27.8599736 L100.909246,37.3846122 L91.3846075,37.3846122 L91.3846075,27.8599736 Z M91.3846075,21.986176 L90.1676605,20.769229 L66.4615327,20.769229 L66.4615327,12.4615374 L91.3846075,12.4615374 L91.3846075,21.986176 Z M4.1538458,112.153836 L4.1538458,12.4615374 L45.6923038,12.4615374 L45.6923038,20.769229 L12.4615374,20.769229 L12.4615374,112.153836 L4.1538458,112.153836 Z M16.6153832,124.615374 L16.6153832,24.9230748 L45.6923038,24.9230748 L45.6923038,31.1538458 C45.6923038,34.5886765 48.4882395,37.3846122 51.9230725,37.3846122 C55.3579055,37.3846122 58.1538411,34.5886765 58.1538411,31.1538458 L58.1538411,12.4615374 L53.9999954,12.4615374 L53.9999954,31.1538458 C53.9999954,32.2977737 53.0670026,33.2307664 51.9230725,33.2307664 C50.7791423,33.2307664 49.8461496,32.2977737 49.8461496,31.1538458 L49.8461496,10.3846145 C49.8461496,6.94978149 52.6420852,4.1538458 56.0769182,4.1538458 C59.5117513,4.1538458 62.3076869,6.94978149 62.3076869,10.3846145 L62.3076869,37.3846122 L66.4615327,37.3846122 L66.4615327,24.9230748 L87.2307617,24.9230748 L87.2307617,41.538458 L103.846145,41.538458 L103.846145,124.615374 L16.6153832,124.615374 Z" id="Shape" fill="#000000"></path>
                <path d="M80.999993,85.1913613 C80.999993,80.5801462 77.9028628,76.4739642 73.4691194,75.2032688 L66.4615351,73.2034192 L66.4615351,72.6486941 C69.0495734,70.6985365 70.6153785,67.6308159 70.6153785,64.3846098 L70.6153785,60.6627801 C70.6153785,55.0800358 66.4595046,50.3491543 61.1526013,49.8877285 C58.245112,49.6301415 55.3518206,50.6148545 53.2150644,52.5751533 C51.0732377,54.5374802 49.8461496,57.3293596 49.8461496,60.230764 L49.8461496,64.3846098 C49.8461496,67.6308159 51.4119547,70.6985365 53.9999954,72.6486941 L53.9999954,73.2034192 L46.9924087,75.2052971 C42.5586653,76.4719361 39.4615351,80.5801462 39.4615351,85.1913613 L39.4615351,91.3846075 L80.999993,91.3846075 L80.999993,85.1913613 Z M76.8461472,87.2307617 L43.6153809,87.2307617 L43.6153809,85.1913613 C43.6153809,82.4248351 45.4742674,79.9595035 48.1343108,79.1989115 L58.1538411,76.3350295 L58.1538411,70.3456221 L57.1214646,69.7452616 C55.1672504,68.607416 53.9999954,66.6024958 53.9999954,64.3846098 L53.9999954,60.230764 C53.9999954,58.4905298 54.7372625,56.8141854 56.0231698,55.6367892 C57.3232747,54.4421528 59.0097605,53.8732301 60.7956302,54.0253483 C63.9708479,54.3011897 66.4615327,57.2147636 66.4615327,60.6627801 L66.4615327,64.3846098 C66.4615327,66.6024958 65.2942777,68.607416 63.3400635,69.7452616 L62.3076869,70.3456221 L62.3076869,76.3350295 L72.3272173,79.1968833 C74.9872607,79.9595035 76.8461472,82.4248351 76.8461472,85.1913613 L76.8461472,87.2307617 Z" id="Shape" fill="#000000"></path>
                <polygon id="Path" fill="#000000" points="20.769229 107.999991 99.6922991 107.999991 99.6922991 112.153836 20.769229 112.153836"></polygon>
                <polygon id="Path" fill="#000000" points="20.769229 116.307682 91.3846075 116.307682 91.3846075 120.461528 20.769229 120.461528"></polygon>
                <polygon id="Path" fill="#000000" points="95.5384533 116.307682 99.6922991 116.307682 99.6922991 120.461528 95.5384533 120.461528"></polygon>
            </g>
        </g>
    </g>
</svg>