<svg xmlns="http://www.w3.org/2000/svg" width="69.443" height="73.637" viewBox="0 0 69.443 73.637">
  <g id="s1" transform="translate(-1 -1)">
    <g id="HomePageUpdate" transform="translate(-1144 -1319)">
      <g id="brickwall_pdhtXZx" transform="translate(1144 1319)">
        <g id="brickwall" transform="translate(0.726 0.819)">
          <path id="Shape" d="M68.445,73.818H14.931a1.275,1.275,0,0,1-1.276-1.27V61.969H1.55A1.275,1.275,0,0,1,.274,60.7V48.849A1.275,1.275,0,0,1,1.55,47.581h12.1v-9.31H1.55A1.274,1.274,0,0,1,.274,37V25.151a1.275,1.275,0,0,1,1.276-1.27h12.1V13.3a1.274,1.274,0,0,1,1.276-1.27h12.1V1.451A1.275,1.275,0,0,1,28.305.181H55.066a1.274,1.274,0,0,1,1.276,1.27v10.58h12.1a1.274,1.274,0,0,1,1.275,1.27v11.85a1.274,1.274,0,0,1-1.275,1.269H56.34v9.31h12.1A1.275,1.275,0,0,1,69.716,37V48.849a1.274,1.274,0,0,1-1.276,1.269H56.34v9.311h12.1A1.274,1.274,0,0,1,69.716,60.7v11.85A1.275,1.275,0,0,1,68.445,73.818ZM42.962,61.969v9.312H67.174v-9.31ZM16.209,67.893v3.388H40.417v-9.31H16.209v3.385H24.3a1.27,1.27,0,1,1,0,2.54ZM29.583,50.118v9.311H53.792V56.044H43.02a1.27,1.27,0,1,1,0-2.54H53.792V50.118Zm-26.752,0v9.311H27.038V50.118ZM42.962,38.269v9.312H67.174v-9.31ZM16.209,44.195v3.386H40.417v-9.31H16.209v3.386H22a1.27,1.27,0,1,1,0,2.54Zm13.374-11.85v3.386H53.792v-9.31H29.586v3.385h7.48a1.27,1.27,0,0,1,0,2.54ZM2.83,26.42v9.31H27.038V26.42ZM42.962,14.57v9.311H67.174V14.569Zm-26.753,0v9.311H40.417V14.569ZM29.586,2.72v9.311H53.792V8.646H48.854a1.27,1.27,0,1,1,0-2.54h4.941V2.72Z"/>
        </g>
      </g>
    </g>
  </g>
</svg>
