<svg id="s10" xmlns="http://www.w3.org/2000/svg" width="51.2" height="51.2" viewBox="0 0 51.2 51.2">
  <g id="HomePageUpdate" transform="translate(-286 -7457)">
    <g id="diamond" transform="translate(286 7457)">
      <path id="Shape" d="M36.133,14.652A1,1,0,0,0,35.3,14.2H15.927a1,1,0,0,0-.835.45l-4.869,7.392h0A.992.992,0,0,0,10.3,23.25L24.849,39.859a1,1,0,0,0,1.5,0L40.9,23.25a1,1,0,0,0,.158-1.072,1.011,1.011,0,0,0-.075-.135h0Zm2.159,6.94H32.3l3-4.568Zm-16.2,2h7.025L25.6,35.584ZM27.453,16.2h5.992l-3,4.568ZM28.6,21.591H22.606l3-4.568Zm-7.833-.838L17.778,16.2H23.75Zm-4.839-3.733,3,4.571H12.913Zm4.081,6.571,3.388,11.571L13.261,23.591Zm7.8,11.569L31.2,23.591h6.741Z" fill="#ffc20f"/>
      <path id="Shape-2" data-name="Shape" d="M43.7,7.5A25.6,25.6,0,1,0,7.5,43.7,25.6,25.6,0,1,0,43.7,7.5ZM25.6,49.2A23.6,23.6,0,1,1,49.2,25.6,23.627,23.627,0,0,1,25.6,49.2Z" fill="#ffc20f"/>
      <path id="Path" d="M12.025,13.02a1,1,0,0,0,.71-.293l.014-.014a1,1,0,1,0-1.426-1.4l-.006.006a1,1,0,0,0,.708,1.7Z" fill="#ffc20f"/>
      <path id="Path-2" data-name="Path" d="M39.884,11.316a20.208,20.208,0,0,0-25.27-2.672A1,1,0,1,0,15.7,10.322a18.2,18.2,0,1,1-5.368,5.36,1,1,0,1,0-1.676-1.091,20.2,20.2,0,1,0,31.224-3.274Z" fill="#ffc20f"/>
    </g>
  </g>
</svg>
