<svg id="s11" xmlns="http://www.w3.org/2000/svg" width="42" height="51.2" viewBox="0 0 42 51.2">
  <g id="HomePageUpdate" transform="translate(-700 -7457)">
    <g id="shield-_2_" data-name="shield-(2)" transform="translate(700 7457)">
      <path id="Path" d="M41,7V23.319A28.064,28.064,0,0,1,21,50.2,28.062,28.062,0,0,1,1,23.319V7A6,6,0,0,0,7,1H35A6,6,0,0,0,41,7Z" fill="none"/>
      <path id="Path-2" data-name="Path" d="M21,15.6a8,8,0,1,1-8,8A8.009,8.009,0,0,1,21,15.6Z" fill="#fff"/>
      <path id="Path-3" data-name="Path" d="M20.9,5.994A1,1,0,1,0,20,5,1,1,0,0,0,20.9,5.994Z" fill="#ffc20f"/>
      <path id="Shape" d="M41,6a5.006,5.006,0,0,1-5-5,1,1,0,0,0-1-1H7A1,1,0,0,0,6,1,5.006,5.006,0,0,1,1,6,1,1,0,0,0,0,7V23.319A29.047,29.047,0,0,0,20.713,51.158a1,1,0,0,0,.575,0A29.05,29.05,0,0,0,42,23.319V7A1,1,0,0,0,41,6ZM40,23.319A26.893,26.893,0,0,1,21,49.154,27.039,27.039,0,0,1,2,23.319V7.929A7.016,7.016,0,0,0,7.929,2H34.071A7.016,7.016,0,0,0,40,7.929Z" fill="#ffc20f"/>
      <path id="Path-4" data-name="Path" d="M32.751,4.6a1,1,0,0,0-.916-.6H25a1,1,0,0,0,0,2h6.2A10.993,10.993,0,0,0,36,10.8V23.319a22.78,22.78,0,0,1-15,21.61A22.78,22.78,0,0,1,6,23.319V10.8A10.994,10.994,0,0,0,10.8,6H17a1,1,0,0,0,0-2H10.165a1,1,0,0,0-.916.6A9.008,9.008,0,0,1,4.6,9.249a1,1,0,0,0-.6.916V23.319A24.894,24.894,0,0,0,20.666,46.936a1,1,0,0,0,.667,0A24.894,24.894,0,0,0,38,23.319V10.165a1,1,0,0,0-.6-.916A9.008,9.008,0,0,1,32.751,4.6Z" fill="#ffc20f"/>
      <path id="Shape-2" data-name="Shape" d="M12,23.6a9,9,0,1,0,9-9A9.01,9.01,0,0,0,12,23.6Zm16,0a7,7,0,1,1-7-7A7.008,7.008,0,0,1,28,23.6Z" fill="#ffc20f"/>
      <path id="Path-5" data-name="Path" d="M18.707,23.893a1,1,0,1,0-1.414,1.414l2,2a1,1,0,0,0,1.414,0l5-5a1,1,0,0,0-1.414-1.414L20,25.186Z" fill="#ffc20f"/>
    </g>
  </g>
</svg>
