<svg xmlns="http://www.w3.org/2000/svg" width="63.699" height="68.393" viewBox="0 0 63.699 68.393">
  <g id="s4" transform="translate(-1.002 -0.996)">
    <g id="HomePageUpdate" transform="translate(-534 -1067)">
      <g id="faucet_xLLruAl" transform="translate(534 1067)">
        <g id="faucet" transform="translate(0.852 0.693)">
          <path id="Shape" d="M56.116,68.693a1.142,1.142,0,0,1-1.143-1.139V25.031a1.815,1.815,0,0,0-1.813-1.807H47.912v5.068a1.142,1.142,0,0,1-1.143,1.139H24.729a1.142,1.142,0,0,1-1.143-1.139V25.767H19.81a1.142,1.142,0,0,1-1.143-1.139V23.271H11.8a.729.729,0,0,0-.727.724v4.043a2.924,2.924,0,0,1-1.075,5.648H3.08A2.92,2.92,0,0,1,2.143,28V22.753a8.4,8.4,0,0,1,8.4-8.378h8.119V13.019a1.143,1.143,0,0,1,1.143-1.139h3.776V9.356a1.142,1.142,0,0,1,1.148-1.14h7.32V2.585H29.6a1.139,1.139,0,1,1,0-2.278H41.9a1.139,1.139,0,0,1,0,2.278h-2.45V8.216h7.32a1.142,1.142,0,0,1,1.143,1.139v5.02H53.16a1.817,1.817,0,0,0,1.813-1.807V1.446a1.143,1.143,0,1,1,2.286,0V12.569a4.1,4.1,0,0,1-4.1,4.085H47.912v4.291H53.16a4.1,4.1,0,0,1,4.1,4.086V67.553a1.142,1.142,0,0,1-1.144,1.14ZM3.089,30.107a.651.651,0,1,0,0,1.3h6.9a.651.651,0,1,0,0-1.3Zm7.46-13.455a6.124,6.124,0,0,0-6.118,6.1v5.075H8.785V24A3.016,3.016,0,0,1,11.8,21h6.87V16.652Zm15.323-6.157V27.152H45.627V10.495Zm-4.923,3.663v9.33h2.632v-9.33ZM34.334,2.585V8.216h2.831V2.585Z"/>
          <path id="Path" d="M62.706.307a1.141,1.141,0,0,0-1.143,1.139V67.553a1.143,1.143,0,0,0,2.286,0V1.446A1.141,1.141,0,0,0,62.706.307Z"/>
          <path id="Shape-2" d="M6.524,45.6A3.617,3.617,0,0,1,2.9,41.99c0-1.617,2.072-4.484,2.707-5.324a1.187,1.187,0,0,1,1.824,0c.635.84,2.707,3.707,2.707,5.324A3.618,3.618,0,0,1,6.524,45.6Zm0-6.259A8.307,8.307,0,0,0,5.193,41.99a1.334,1.334,0,0,0,2.667,0,8.474,8.474,0,0,0-1.334-2.652Z"/>
        </g>
      </g>
    </g>
  </g>
</svg>
