<svg xmlns="http://www.w3.org/2000/svg" width="71.983" height="69.917" viewBox="0 0 71.983 69.917">
  <g id="s5" transform="translate(0 -1)">
    <g id="HomePageUpdate" transform="translate(-531 -1335)">
      <g id="paint-roller_KD5tbXY" transform="translate(531 1335)">
        <g id="paint-roller" transform="translate(0 0.929)">
          <path id="Shape" d="M65.135,69.985H65.1a7.241,7.241,0,0,1-5.128-2.114l-4.018-3.977a6.957,6.957,0,0,1-2.069-3.828,13.688,13.688,0,0,0-2.822-4.073l-2.185-2.164L47.52,55.171a1.111,1.111,0,0,1-.788.323,1.125,1.125,0,0,1-.787-.323l-2.486-2.46a1.1,1.1,0,0,1-.326-.779,1.089,1.089,0,0,1,.326-.779l2.72-2.69-5.155-5.1L12.944,55.526a1.091,1.091,0,0,1-.19.062,3.358,3.358,0,0,1-.754.083,3.282,3.282,0,0,1-2.3-.95l-8.633-8.54a3.592,3.592,0,0,1,0-5.11l3.617-3.576L2.23,35.071a1.094,1.094,0,0,1,0-1.558l1.61-1.592a2.722,2.722,0,0,1,.19-3.657L30.386,2.171a2.793,2.793,0,0,1,3.694-.189L35.69.393a1.122,1.122,0,0,1,1.573,0l9.1,9.014a1.093,1.093,0,0,1,0,1.557l-1.609,1.592a2.722,2.722,0,0,1-.191,3.657L18.214,42.3a2.776,2.776,0,0,1-3.694.189l-1.609,1.592a1.119,1.119,0,0,1-1.573,0L8.849,41.618,6.82,43.626l5.666,5.608L40.568,37.071a2.943,2.943,0,0,1,3.243.8l6.538,6.469L52.915,41.8a1.128,1.128,0,0,1,.785-.327,1.114,1.114,0,0,1,.787.322l2.486,2.461a1.094,1.094,0,0,1,0,1.558l-1.358,1.344L57.8,49.322a13.881,13.881,0,0,0,4.115,2.792,7.09,7.09,0,0,1,3.867,2.048l4.161,4.118a6.836,6.836,0,0,1-4.808,11.708ZM63.651,55.228l-6.616,6.543a6.1,6.1,0,0,0,.5.558l4.018,3.977a4.829,4.829,0,0,0,3.491,1.469,4.885,4.885,0,0,0,3.1-1.115,4.647,4.647,0,0,0,.231-6.831l-4.16-4.118a5.834,5.834,0,0,0-.564-.489Zm-9.6-6.512-3.6,3.555,2.186,2.162c.654.646,3.076,3.469,3.423,5.189l5.413-5.351c-1.716-.339-4.584-2.737-5.243-3.385l-2.186-2.165Zm-47.8-9.662L2.641,42.627a1.4,1.4,0,0,0,0,2l8.634,8.544a1.03,1.03,0,0,0,.732.3,1.051,1.051,0,0,0,.159-.012L40.832,41.044a1.122,1.122,0,0,1,1.232.229l5.7,5.63L48.78,45.9l-6.538-6.47a.993.993,0,0,0-.653-.356.435.435,0,0,0-.162.031L12.684,51.556a1.122,1.122,0,0,1-1.233-.23L4.458,44.4a1.089,1.089,0,0,1-.326-.778,1.1,1.1,0,0,1,.326-.779l2.814-2.787Zm44.876,7.622-2.594,2.567-2.718,2.692.913.9,7.883-7.8-.915-.9ZM5.387,33.5l-.8.791,7.536,7.458.8-.791ZM32.351,3.571a.556.556,0,0,0-.392.16L5.6,29.817a.548.548,0,0,0,0,.778L15.855,40.741a.561.561,0,0,0,.786,0L43,14.658a.546.546,0,0,0,0-.778L32.744,3.734A.556.556,0,0,0,32.351,3.571Zm3.324-.052,7.538,7.458.8-.792L36.475,2.73ZM62.94,65.374a3.008,3.008,0,0,1,0-4.3,3.1,3.1,0,0,1,4.346,0,3.021,3.021,0,0,1,0,4.3,3.1,3.1,0,0,1-4.346,0Zm1.323-2.152a.83.83,0,0,0,.25.594.854.854,0,0,0,1.2,0,.833.833,0,0,0,0-1.187.854.854,0,0,0-1.2,0A.83.83,0,0,0,64.263,63.222ZM11.206,31.994l3.738-3.7,1.573,1.558-3.737,3.7ZM8.6,29.415l11.927-11.8L22.1,19.171l-11.927,11.8Z"/>
        </g>
      </g>
    </g>
  </g>
</svg>
