<svg id="s6" xmlns="http://www.w3.org/2000/svg" width="95" height="77.152" viewBox="0 0 95 77.152">
  <g id="HomePageUpdate" transform="translate(-214 -1060)">
    <g id="shop_obW3MzI" transform="translate(214 1060)">
      <path id="Shape" d="M90.63,77.151H4.37a1.392,1.392,0,0,1,0-2.784H5.949V33.084A13.054,13.054,0,0,1,1.634,28.5,12.9,12.9,0,0,1,0,22.215a1.393,1.393,0,0,1,.183-.69L11.226,2.2A4.376,4.376,0,0,1,15.018,0H79.983a4.379,4.379,0,0,1,3.791,2.2L94.817,21.525a1.393,1.393,0,0,1,.183.69A12.9,12.9,0,0,1,93.366,28.5a13.053,13.053,0,0,1-4.315,4.588V74.369H90.63a1.392,1.392,0,1,1,0,2.784ZM62.374,38.672H80.222a1.394,1.394,0,0,1,1.392,1.392V74.369h4.655V34.434a12.918,12.918,0,0,1-15.713-6.39,12.92,12.92,0,0,1-23.056,0,12.919,12.919,0,0,1-23.054,0,12.92,12.92,0,0,1-15.713,6.39V74.369h52.25V40.063A1.394,1.394,0,0,1,62.374,38.672Zm1.391,31.043V74.37H78.83V69.715Zm0-28.261V66.932H78.83V41.455Zm8.278-17.849a10.136,10.136,0,0,0,20.077,0H87.656a1.392,1.392,0,0,1,0-2.784h3.552L81.358,3.581a1.587,1.587,0,0,0-1.374-.8H15.018a1.587,1.587,0,0,0-1.375.8L3.79,20.824H7.341a1.392,1.392,0,0,1,0,2.784H2.878a10.136,10.136,0,0,0,20.077,0H13.291a1.392,1.392,0,0,1,0-2.784H81.709a1.392,1.392,0,1,1,0,2.784Zm-23.054,0a10.135,10.135,0,0,0,20.074,0Zm-23.055,0a10.134,10.134,0,0,0,20.074,0Z"/>
      <path id="Shape-2" d="M54.937,69.715H14.778a1.394,1.394,0,0,1-1.392-1.392V40.063a1.394,1.394,0,0,1,1.392-1.392H54.937a1.394,1.394,0,0,1,1.39,1.392v28.26A1.394,1.394,0,0,1,54.937,69.715ZM16.169,41.455V66.932H53.546V41.455Z"/>
    </g>
  </g>
</svg>
