<svg xmlns="http://www.w3.org/2000/svg" width="76" height="75.756" viewBox="0 0 76 75.756">
  <g id="s7" transform="translate(0 -0.122)">
    <g id="HomePageUpdate" transform="translate(-835 -1315)">
      <g id="sketch-_1_" data-name="sketch-(1)" transform="translate(835 1315)">
        <path id="Shape" d="M67.247,53.634a1.115,1.115,0,0,0-1.216.242L53.841,66.066a1.116,1.116,0,0,0,.789,1.9H66.82a1.115,1.115,0,0,0,1.116-1.116V54.664A1.116,1.116,0,0,0,67.247,53.634ZM57.323,65.739,65.7,57.357v8.382Z"/>
        <path id="Shape-2" data-name="Shape" d="M75.311,35.754A1.115,1.115,0,0,0,74.1,36l-3.341,3.341V16.621a1.115,1.115,0,0,0-1.116-1.116H61.068l3.111-3.111h0l3-3a3.4,3.4,0,0,0,0-4.81L63.712,1.118a3.4,3.4,0,0,0-4.81,0l-3,3L52.278,7.741l-7.764,7.764H9.889V4.469A1.115,1.115,0,0,0,8.773,3.354,8.784,8.784,0,0,0,0,12.128V59.507a1.118,1.118,0,0,0,.026.24A8.449,8.449,0,0,0,8.45,67.554H42.537l-6.42,6.42a1.116,1.116,0,0,0,.789,1.9H74.884A1.115,1.115,0,0,0,76,74.762V36.784A1.116,1.116,0,0,0,75.311,35.754ZM60.48,2.7a1.171,1.171,0,0,1,1.655,0L65.6,6.162a1.172,1.172,0,0,1,0,1.655l-2.21,2.211L58.269,4.906ZM56.692,6.484l5.122,5.122-2.047,2.047L54.645,8.53ZM73.769,49.319H71.711a1.116,1.116,0,1,0,0,2.231h2.058v3.362H71.711a1.116,1.116,0,1,0,0,2.231h2.058V60.5H71.711a1.116,1.116,0,1,0,0,2.231h2.058V66.1H71.711a1.116,1.116,0,0,0,0,2.231h2.058v5.32H39.6L50.867,62.38A1.116,1.116,0,0,0,49.289,60.8l-4.521,4.521H8.45A6.184,6.184,0,0,1,2.236,59.3q.01-.318.049-.63v0q.019-.148.045-.295l.006-.033q.023-.131.052-.26l.017-.072q.025-.11.055-.218c.011-.039.022-.078.033-.117.016-.057.033-.113.051-.169s.037-.111.057-.167c.014-.039.027-.077.041-.116.027-.073.056-.145.086-.217l.026-.062c.038-.089.078-.177.12-.264l.005-.011A6.567,6.567,0,0,1,7.443,53.1l.017,0c.092-.019.186-.035.279-.05l.047-.008c.085-.013.17-.023.256-.033L8.115,53c.083-.008.166-.014.25-.019l.079-.006q.164-.008.33-.008a1.115,1.115,0,0,0,1.116-1.116V43.76a1.116,1.116,0,1,0-2.231,0V50.8a8.713,8.713,0,0,0-5.011,2.425c-.145.142-.282.289-.416.438V12.128A6.554,6.554,0,0,1,7.658,5.68V39.3h0a1.116,1.116,0,1,0,2.231,0h0V17.736H42.284L36.117,23.9a1.115,1.115,0,0,0,1.577,1.578l8.071-8.071h0l7.3-7.3,5.122,5.122-.6.6h0L35.094,38.325,29.972,33.2l4.434-4.434a1.115,1.115,0,1,0-1.577-1.578l-5.222,5.222a1.119,1.119,0,0,0-.079.088c-.008.01-.015.021-.023.031s-.031.042-.046.064l-.023.039c-.012.021-.024.042-.035.063s-.014.028-.02.043-.019.044-.028.066-.007.015-.01.023L25.17,38.988l-1.482,4.2a1.128,1.128,0,0,0-.044.17h-3.71a1.116,1.116,0,1,0,0,2.231H50.826a1.116,1.116,0,1,0,0-2.231H28.662l6.8-2.4.017-.007c.026-.01.052-.021.078-.033l.03-.014c.027-.013.053-.028.079-.044l.025-.015c.027-.017.053-.036.079-.056l.019-.014a1.12,1.12,0,0,0,.09-.081L58.837,17.736h9.686V41.567L52.567,57.524a1.115,1.115,0,0,0,0,1.578,1.141,1.141,0,0,0,.085.077,1.115,1.115,0,0,0,1.493-.077h0L73.769,39.477ZM33.054,39.439l-3.2,1.128-2.129-2.129,1.128-3.2Z"/>
      </g>
    </g>
  </g>
</svg>
