<svg id="s9" xmlns="http://www.w3.org/2000/svg" width="62.087" height="46.08" viewBox="0 0 62.087 46.08">
  <g id="HomePageUpdate" transform="translate(-1099 -7460)">
    <g id="delivery-truck" transform="translate(1099 7460)">
      <path id="Path" d="M21.342,8.488a9.7,9.7,0,1,1-9.7,9.7A9.7,9.7,0,0,1,21.342,8.488Z" fill="#fff"/>
      <path id="Path-2" data-name="Path" d="M58.449,38.8a6.063,6.063,0,1,1-6.063-6.063A6.064,6.064,0,0,1,58.449,38.8Z" fill="#fff"/>
      <path id="Path-3" data-name="Path" d="M21.342,38.8a6.063,6.063,0,1,1-6.063-6.063A6.064,6.064,0,0,1,21.342,38.8Z" fill="#fff"/>
      <path id="Path-4" data-name="Path" d="M52.386,36.379A2.425,2.425,0,1,0,54.811,38.8,2.424,2.424,0,0,0,52.386,36.379Z" fill="#ffc20f"/>
      <path id="Path-5" data-name="Path" d="M51.173,26.678a1.213,1.213,0,1,0,1.213,1.213A1.213,1.213,0,0,0,51.173,26.678Z" fill="#ffc20f"/>
      <path id="Path-6" data-name="Path" d="M15.279,36.379A2.425,2.425,0,1,0,17.7,38.8,2.424,2.424,0,0,0,15.279,36.379Z" fill="#ffc20f"/>
      <path id="Shape" d="M56.99,21.905,54.9,13.542a3.636,3.636,0,0,0-2.513-6.266h-9.7V3.638A3.642,3.642,0,0,0,39.047,0H3.638A3.642,3.642,0,0,0,0,3.638V35.166A3.642,3.642,0,0,0,3.638,38.8H8a7.276,7.276,0,0,0,14.552,0H45.11a7.276,7.276,0,0,0,14.552,0c0-.069,0-.138-.005-.207a3.643,3.643,0,0,0,2.43-3.431V27.891A6.072,6.072,0,0,0,56.99,21.905Zm-4.338-7.353,1.819,7.276H44.4l2.781-2.781a1.213,1.213,0,1,0-1.715-1.715l-2.781,2.78V14.552Zm.947-3.638a1.213,1.213,0,0,1-1.213,1.213h-9.7V9.7h9.7A1.214,1.214,0,0,1,53.6,10.914ZM15.279,43.655A4.851,4.851,0,1,1,20.13,38.8,4.856,4.856,0,0,1,15.279,43.655Zm6.859-7.276a7.276,7.276,0,0,0-13.719,0H3.638a1.214,1.214,0,0,1-1.213-1.213V3.638A1.214,1.214,0,0,1,3.638,2.425H39.047a1.214,1.214,0,0,1,1.213,1.213V36.379Zm30.247,7.276A4.851,4.851,0,1,1,57.236,38.8,4.856,4.856,0,0,1,52.386,43.655Zm6.773-7.507a7.276,7.276,0,0,0-13.633.232H42.685V24.253H56.024a3.644,3.644,0,0,1,3.429,2.425H56.024a1.213,1.213,0,1,0,0,2.425h3.638v6.063a1.212,1.212,0,0,1-.5.981Z" fill="#ffc20f"/>
      <path id="Shape-2" data-name="Shape" d="M21.342,7.276A10.914,10.914,0,1,0,32.256,18.189,10.926,10.926,0,0,0,21.342,7.276Zm0,19.4a8.488,8.488,0,1,1,8.488-8.488A8.5,8.5,0,0,1,21.342,26.678Z" fill="#ffc20f"/>
      <path id="Path-7" data-name="Path" d="M26.193,16.977H22.555V13.339a1.213,1.213,0,1,0-2.425,0v4.851A1.213,1.213,0,0,0,21.342,19.4h4.851a1.213,1.213,0,0,0,0-2.425Z" fill="#ffc20f"/>
    </g>
  </g>
</svg>
