<svg xmlns="http://www.w3.org/2000/svg" xmlns:xlink="http://www.w3.org/1999/xlink" width="318.219" height="149.843" viewBox="0 0 318.219 149.843">
  <defs>
    <clipPath id="clip-path">
      <path id="Mask" d="M157.687,144.843a53.967,53.967,0,0,1-14.32-1.8,39.692,39.692,0,0,1-11.836-5.414,40.485,40.485,0,0,1-9.445-9.094,56.842,56.842,0,0,1-7.149-12.843,76.565,76.565,0,0,1-4.5-17.836,172.349,172.349,0,0,1-1.5-24.07,159.963,159.963,0,0,1,2.929-32.742,78.991,78.991,0,0,1,3.662-12.451,49.418,49.418,0,0,1,5.127-9.838,47.685,47.685,0,0,1,7.154-8.2,40.08,40.08,0,0,1,8.432-5.859,40.761,40.761,0,0,1,9.709-3.515A49.862,49.862,0,0,1,156.937,0a51.373,51.373,0,0,1,14.051,1.852,41.521,41.521,0,0,1,11.964,5.555,40.4,40.4,0,0,1,9.68,9.363,56.777,56.777,0,0,1,7.2,13.277,81.887,81.887,0,0,1,4.465,18.223,176.522,176.522,0,0,1,1.488,24.2A176.784,176.784,0,0,1,204.27,96.89a81.335,81.335,0,0,1-4.535,18.328,60.625,60.625,0,0,1-7.09,13.254,39.323,39.323,0,0,1-9.176,9.2,37.533,37.533,0,0,1-11.555,5.378A53.251,53.251,0,0,1,157.687,144.843Zm-.094-119.906A18.008,18.008,0,0,0,145.781,29.2a19.252,19.252,0,0,0-4.547,5.8,40.607,40.607,0,0,0-3.328,8.871c-1.8,6.9-2.719,17.156-2.719,30.469a133.435,133.435,0,0,0,1.559,22.113c1.034,6,2.607,10.715,4.676,14.027a22.751,22.751,0,0,0,7.16,7.488,16.888,16.888,0,0,0,9.012,2.5,15.949,15.949,0,0,0,8.578-2.367,20.5,20.5,0,0,0,6.609-7.1c2.271-3.794,4-8.936,5.133-15.281a133.2,133.2,0,0,0,1.711-22.969,145.891,145.891,0,0,0-1.535-22.968c-1.019-6.221-2.568-11.109-4.606-14.531a23.088,23.088,0,0,0-7.043-7.735A15.979,15.979,0,0,0,157.594,24.937ZM300.938,141.375H275.25V113.062H215.062V88.781L274.687,0h26.25V88.781h12.281v24.281H300.938v28.311ZM275.25,42.563l-31.5,46.219h31.5ZM85.875,141.375H60.187V113.062H0V88.781L59.625,0h26.25V88.781H98.156v24.281H85.875v28.311ZM60.187,42.563l-31.5,46.219h31.5Z" fill="#ffc20f"/>
    </clipPath>
  </defs>
  <g id="_404" data-name="404" transform="translate(0 0)">
    <path id="_404_copy_2" data-name="404 copy 2" d="M157.687,144.843a53.967,53.967,0,0,1-14.32-1.8,39.692,39.692,0,0,1-11.836-5.414,40.485,40.485,0,0,1-9.445-9.094,56.842,56.842,0,0,1-7.149-12.843,76.565,76.565,0,0,1-4.5-17.836,172.349,172.349,0,0,1-1.5-24.07,159.963,159.963,0,0,1,2.929-32.742,78.991,78.991,0,0,1,3.662-12.451,49.418,49.418,0,0,1,5.127-9.838,47.685,47.685,0,0,1,7.154-8.2,40.08,40.08,0,0,1,8.432-5.859,40.761,40.761,0,0,1,9.709-3.515A49.862,49.862,0,0,1,156.937,0a51.373,51.373,0,0,1,14.051,1.852,41.521,41.521,0,0,1,11.964,5.555,40.4,40.4,0,0,1,9.68,9.363,56.777,56.777,0,0,1,7.2,13.277,81.887,81.887,0,0,1,4.465,18.223,176.522,176.522,0,0,1,1.488,24.2A176.784,176.784,0,0,1,204.27,96.89a81.335,81.335,0,0,1-4.535,18.328,60.625,60.625,0,0,1-7.09,13.254,39.323,39.323,0,0,1-9.176,9.2,37.533,37.533,0,0,1-11.555,5.378A53.251,53.251,0,0,1,157.687,144.843Zm-.094-119.906A18.008,18.008,0,0,0,145.781,29.2a19.252,19.252,0,0,0-4.547,5.8,40.607,40.607,0,0,0-3.328,8.871c-1.8,6.9-2.719,17.156-2.719,30.469a133.435,133.435,0,0,0,1.559,22.113c1.034,6,2.607,10.715,4.676,14.027a22.751,22.751,0,0,0,7.16,7.488,16.888,16.888,0,0,0,9.012,2.5,15.949,15.949,0,0,0,8.578-2.367,20.5,20.5,0,0,0,6.609-7.1c2.271-3.794,4-8.936,5.133-15.281a133.2,133.2,0,0,0,1.711-22.969,145.891,145.891,0,0,0-1.535-22.968c-1.019-6.221-2.568-11.109-4.606-14.531a23.088,23.088,0,0,0-7.043-7.735A15.979,15.979,0,0,0,157.594,24.937ZM300.938,141.375H275.25V113.062H215.062V88.781L274.687,0h26.25V88.781h12.281v24.281H300.938v28.311ZM275.25,42.563l-31.5,46.219h31.5ZM85.875,141.375H60.187V113.062H0V88.781L59.625,0h26.25V88.781H98.156v24.281H85.875v28.311ZM60.187,42.563l-31.5,46.219h31.5Z" transform="translate(5 5)" fill="#ffc20f" opacity="0.3"/>
    <g id="_404_copy_2-2" data-name="404 copy 2">
      <path id="Mask-2" data-name="Mask" d="M157.687,144.843a53.967,53.967,0,0,1-14.32-1.8,39.692,39.692,0,0,1-11.836-5.414,40.485,40.485,0,0,1-9.445-9.094,56.842,56.842,0,0,1-7.149-12.843,76.565,76.565,0,0,1-4.5-17.836,172.349,172.349,0,0,1-1.5-24.07,159.963,159.963,0,0,1,2.929-32.742,78.991,78.991,0,0,1,3.662-12.451,49.418,49.418,0,0,1,5.127-9.838,47.685,47.685,0,0,1,7.154-8.2,40.08,40.08,0,0,1,8.432-5.859,40.761,40.761,0,0,1,9.709-3.515A49.862,49.862,0,0,1,156.937,0a51.373,51.373,0,0,1,14.051,1.852,41.521,41.521,0,0,1,11.964,5.555,40.4,40.4,0,0,1,9.68,9.363,56.777,56.777,0,0,1,7.2,13.277,81.887,81.887,0,0,1,4.465,18.223,176.522,176.522,0,0,1,1.488,24.2A176.784,176.784,0,0,1,204.27,96.89a81.335,81.335,0,0,1-4.535,18.328,60.625,60.625,0,0,1-7.09,13.254,39.323,39.323,0,0,1-9.176,9.2,37.533,37.533,0,0,1-11.555,5.378A53.251,53.251,0,0,1,157.687,144.843Zm-.094-119.906A18.008,18.008,0,0,0,145.781,29.2a19.252,19.252,0,0,0-4.547,5.8,40.607,40.607,0,0,0-3.328,8.871c-1.8,6.9-2.719,17.156-2.719,30.469a133.435,133.435,0,0,0,1.559,22.113c1.034,6,2.607,10.715,4.676,14.027a22.751,22.751,0,0,0,7.16,7.488,16.888,16.888,0,0,0,9.012,2.5,15.949,15.949,0,0,0,8.578-2.367,20.5,20.5,0,0,0,6.609-7.1c2.271-3.794,4-8.936,5.133-15.281a133.2,133.2,0,0,0,1.711-22.969,145.891,145.891,0,0,0-1.535-22.968c-1.019-6.221-2.568-11.109-4.606-14.531a23.088,23.088,0,0,0-7.043-7.735A15.979,15.979,0,0,0,157.594,24.937ZM300.938,141.375H275.25V113.062H215.062V88.781L274.687,0h26.25V88.781h12.281v24.281H300.938v28.311ZM275.25,42.563l-31.5,46.219h31.5ZM85.875,141.375H60.187V113.062H0V88.781L59.625,0h26.25V88.781H98.156v24.281H85.875v28.311ZM60.187,42.563l-31.5,46.219h31.5Z" fill="#ffc20f"/>
    </g>
  </g>
</svg>
