<?xml version="1.0" encoding="UTF-8"?>
<svg width="150px" height="80px" viewBox="0 0 150 80" version="1.1" xmlns="http://www.w3.org/2000/svg" xmlns:xlink="http://www.w3.org/1999/xlink">
    <!-- Generator: Sketch 62 (91390) - https://sketch.com -->
    <title>Combined Shape</title>
    <desc>Created with Sketch.</desc>
    <g id="Final-User-design-_-1" stroke="none" stroke-width="1" fill="none" fill-rule="evenodd">
        <g id="001" transform="translate(-1170.000000, -4690.000000)" fill="#E8E8E8">
            <g id="Group-27" transform="translate(-471.000000, 2386.000000)">
                <path d="M1741.26665,2365.5979 C1746.31851,2365.5979 1750.8675,2369.71623 1751.43032,2374.79798 C1751.99121,2379.87972 1748.35124,2384 1743.29938,2384 C1738.24946,2384 1733.70046,2379.87972 1733.13764,2374.79798 C1732.57482,2369.71623 1736.21479,2365.5979 1741.26665,2365.5979 Z M1675.12635,2365.5979 C1680.17821,2365.5979 1684.72721,2369.71623 1685.28809,2374.79798 C1685.85092,2379.87972 1682.21095,2384 1677.15909,2384 C1672.10916,2384 1667.55823,2379.87972 1666.99734,2374.79798 C1666.43646,2369.71623 1670.07449,2365.5979 1675.12635,2365.5979 Z M1748.93921,2304 C1751.02803,2304 1752.88476,2305.69327 1753.11685,2307.79525 L1753.11685,2307.79525 L1753.54236,2311.53211 L1724.58893,2311.53211 C1722.80956,2311.53211 1721.35899,2312.99183 1721.35899,2314.80187 L1721.35899,2314.80187 L1721.35899,2314.93811 C1721.35899,2316.74815 1722.80956,2318.20786 1724.58893,2318.20786 L1724.58893,2318.20786 L1758.30023,2318.20786 C1759.88619,2318.20786 1761.1627,2319.49241 1761.1627,2321.08836 C1761.1627,2322.68431 1759.88619,2323.96886 1758.30023,2323.96886 L1758.30023,2323.96886 L1754.91556,2323.96886 L1755.34106,2327.76411 L1728.74724,2327.76411 C1726.96787,2327.76411 1725.5173,2329.22382 1725.5173,2331.0144 L1725.5173,2331.0144 L1725.5173,2331.20903 C1725.5173,2332.99961 1726.96787,2334.45932 1728.74724,2334.45932 L1728.74724,2334.45932 L1765.99794,2334.69288 C1767.5839,2334.69288 1768.8604,2335.97742 1768.8604,2337.57337 C1768.8604,2339.16933 1767.5839,2340.45387 1765.99794,2340.45387 L1765.99794,2340.45387 L1756.73361,2340.45387 L1757.23648,2345.00817 L1742.8468,2345.00817 C1741.04809,2345.00817 1739.59752,2346.46789 1739.59752,2348.27793 C1739.59752,2350.06851 1741.04809,2351.52822 1742.8468,2351.52822 L1742.8468,2351.52822 L1776.09392,2351.52822 C1777.67988,2351.52822 1778.95638,2352.81277 1778.95638,2354.40872 C1778.95638,2356.00467 1777.67988,2357.28922 1776.09392,2357.28922 L1776.09392,2357.28922 L1758.59035,2357.28922 L1759.96356,2369.7065 C1760.19565,2371.78902 1758.70639,2373.48229 1756.61757,2373.48229 L1756.61757,2373.48229 L1753.42631,2373.48229 C1752.76872,2367.68237 1747.58534,2362.97236 1741.80239,2362.97236 L1741.80239,2362.97236 L1740.0617,2362.97236 C1734.68492,2362.97236 1730.72002,2367.05956 1730.72002,2372.31452 C1730.72002,2372.70378 1730.73936,2373.09303 1730.77804,2373.48229 L1730.77804,2373.48229 L1690.47147,2373.48229 C1689.13695,2373.48229 1687.86044,2372.64539 1687.28021,2371.39977 L1687.28021,2371.39977 L1686.29382,2369.35617 C1684.08895,2364.70455 1679.35042,2361.60996 1674.43781,2361.60996 C1669.97005,2361.60996 1666.17922,2364.1596 1664.65129,2368.1884 L1664.65129,2368.1884 L1663.31676,2371.69171 C1662.9106,2372.78163 1661.88553,2373.48229 1660.66705,2373.48229 L1660.66705,2373.48229 L1645.75516,2373.48229 C1644.32393,2373.48229 1642.95072,2372.48968 1642.44786,2371.08836 L1642.44786,2371.08836 L1641.2874,2367.85753 C1640.51376,2365.71662 1641.34542,2363.4784 1643.26018,2362.58311 L1643.26018,2362.58311 L1641.65488,2349.15376 C1641.01663,2343.85987 1641.88697,2338.68276 1644.14986,2334.18684 L1644.14986,2334.18684 L1649.56533,2324.51382 C1653.35616,2317.72129 1660.57034,2313.67302 1668.71289,2313.77034 L1668.71289,2313.77034 L1679.4858,2313.90658 L1681.4199,2311.55158 L1686.77735,2311.55158 L1692.28952,2361.51265 L1694.90055,2361.51265 L1688.98222,2307.79525 C1688.73079,2305.69327 1690.23938,2304 1692.30886,2304 L1692.30886,2304 Z M1770.09629,2359.62865 C1771.73447,2359.62865 1773.06319,2360.9638 1773.06319,2362.6123 C1773.06319,2364.2608 1771.73447,2365.5979 1770.09629,2365.5979 L1766.35768,2365.5979 C1764.7195,2365.5979 1763.39271,2364.2608 1763.39271,2362.6123 C1763.39271,2360.9638 1764.7195,2359.62865 1766.35768,2359.62865 L1770.09629,2359.62865 Z M1766.81412,2343.39276 C1768.45037,2343.39276 1769.77909,2344.72791 1769.77909,2346.37641 C1769.77909,2348.02491 1768.45037,2349.36201 1766.81412,2349.36201 L1763.07552,2349.36201 C1761.43734,2349.36201 1760.10861,2348.02491 1760.10861,2346.37641 C1760.10861,2344.72791 1761.43734,2343.39276 1763.07552,2343.39276 L1766.81412,2343.39276 Z M1783.19786,2343.39276 C1784.83603,2343.39276 1786.16476,2344.72791 1786.16476,2346.37641 C1786.16476,2348.02491 1784.83603,2349.36201 1783.19786,2349.36201 L1779.46118,2349.36201 C1777.823,2349.36201 1776.49428,2348.02491 1776.49428,2346.37641 C1776.49428,2344.72791 1777.823,2343.39276 1779.46118,2343.39276 L1783.19786,2343.39276 Z M1730.12045,2338.76061 L1726.3683,2338.76061 C1724.74366,2338.76061 1723.40913,2340.08408 1723.40913,2341.73842 C1723.40913,2343.39276 1724.74366,2344.73569 1726.3683,2344.73569 L1726.3683,2344.73569 L1730.12045,2344.73569 C1731.74509,2344.73569 1733.07962,2343.39276 1733.07962,2341.73842 C1733.07962,2340.08408 1731.74509,2338.76061 1730.12045,2338.76061 L1730.12045,2338.76061 Z M1678.72563,2321.0838 L1678.5381,2321.08836 L1664.45788,2321.80849 C1660.99584,2321.98365 1658.03668,2323.89101 1656.5861,2326.90775 L1656.5861,2326.90775 L1651.49943,2337.49552 C1650.64843,2339.30557 1652.46648,2341.52433 1654.4586,2341.07668 L1654.4586,2341.07668 L1680.93638,2335.19891 C1682.36761,2334.86804 1683.27663,2333.56403 1683.10257,2332.04593 L1683.10257,2332.04593 L1682.25156,2324.29973 C1682.03881,2322.45076 1680.35615,2320.99105 1678.5381,2321.08836 Z M1788.0331,2331.76567 C1789.67128,2331.76567 1791,2333.10276 1791,2334.75127 C1791,2336.39977 1789.67128,2337.73686 1788.0331,2337.73686 L1784.29642,2337.73686 C1782.65824,2337.73686 1781.32952,2336.39977 1781.32952,2334.75127 C1781.32952,2333.10276 1782.65824,2331.76567 1784.29642,2331.76567 L1788.0331,2331.76567 Z M1771.65904,2324.87388 C1773.29722,2324.87388 1774.62594,2326.20903 1774.62594,2327.85753 C1774.62594,2329.50603 1773.29722,2330.84313 1771.65904,2330.84313 L1767.92043,2330.84313 C1766.28225,2330.84313 1764.95546,2329.50603 1764.95546,2327.85753 C1764.95546,2326.20903 1766.28225,2324.87388 1767.92043,2324.87388 L1771.65904,2324.87388 Z M1716.67848,2320.42663 L1712.94567,2320.42663 C1711.30169,2320.42663 1709.9865,2321.76956 1709.9865,2323.40444 C1709.9865,2325.05878 1711.30169,2326.40171 1712.94567,2326.40171 L1712.94567,2326.40171 L1716.67848,2326.40171 C1718.32246,2326.40171 1719.65699,2325.05878 1719.65699,2323.40444 C1719.65699,2321.76956 1718.32246,2320.42663 1716.67848,2320.42663 L1716.67848,2320.42663 Z M1765.26105,2310.703 C1766.89922,2310.703 1768.22795,2312.03815 1768.22795,2313.68665 C1768.22795,2315.33515 1766.89922,2316.6703 1765.26105,2316.6703 L1761.52244,2316.6703 C1759.88426,2316.6703 1758.55747,2315.33515 1758.55747,2313.68665 C1758.55747,2312.03815 1759.88426,2310.703 1761.52244,2310.703 L1765.26105,2310.703 Z" id="Combined-Shape" transform="translate(1716.000000, 2344.000000) scale(-1, 1) translate(-1716.000000, -2344.000000) "></path>
            </g>
        </g>
    </g>
</svg>