<svg id="no-wifi" xmlns="http://www.w3.org/2000/svg" width="154.708" height="153.708" viewBox="0 0 154.708 153.708">
  <path id="Combined_Shape" data-name="Combined Shape" d="M25.237,130.9l29.705-29.7A20.252,20.252,0,1,0,78.486,77.648l9.423-9.423a32.092,32.092,0,0,1,9.638,6.643,4.544,4.544,0,1,0,6.427-6.426,41.386,41.386,0,0,0-9.29-6.992l9.266-9.266a54.349,54.349,0,0,1,9.01,7.272,4.544,4.544,0,0,0,6.426-6.427,63.642,63.642,0,0,0-8.882-7.4L130.9,25.237A74.852,74.852,0,0,1,74.854,149.708,74.3,74.3,0,0,1,25.237,130.9ZM0,74.854A74.851,74.851,0,0,1,124.471,18.81L102.39,40.891A63.076,63.076,0,0,0,30.322,53.029a4.544,4.544,0,0,0,6.426,6.427,54.014,54.014,0,0,1,58.773-11.7L85.514,57.767A41.427,41.427,0,0,0,74.855,56.38a40.913,40.913,0,0,0-29.12,12.062,4.544,4.544,0,1,0,6.426,6.427,31.883,31.883,0,0,1,22.694-9.4q1.427,0,2.833.125L18.81,124.471A74.3,74.3,0,0,1,0,74.854Zm66.961,30.6a11.177,11.177,0,1,1,7.893,3.264A11.175,11.175,0,0,1,66.961,105.456Z" transform="translate(0 0)" fill="#ffc20f"/>
  <path id="Combined_Shape_Copy" data-name="Combined Shape Copy" d="M25.237,130.9l29.705-29.7A20.252,20.252,0,1,0,78.486,77.648l9.423-9.423a32.092,32.092,0,0,1,9.638,6.643,4.544,4.544,0,1,0,6.427-6.426,41.386,41.386,0,0,0-9.29-6.992l9.266-9.266a54.349,54.349,0,0,1,9.01,7.272,4.544,4.544,0,0,0,6.426-6.427,63.642,63.642,0,0,0-8.882-7.4L130.9,25.237A74.852,74.852,0,0,1,74.854,149.708,74.3,74.3,0,0,1,25.237,130.9ZM0,74.854A74.851,74.851,0,0,1,124.471,18.81L102.39,40.891A63.076,63.076,0,0,0,30.322,53.029a4.544,4.544,0,0,0,6.426,6.427,54.014,54.014,0,0,1,58.773-11.7L85.514,57.767A41.427,41.427,0,0,0,74.855,56.38a40.913,40.913,0,0,0-29.12,12.062,4.544,4.544,0,1,0,6.426,6.427,31.883,31.883,0,0,1,22.694-9.4q1.427,0,2.833.125L18.81,124.471A74.3,74.3,0,0,1,0,74.854Zm66.961,30.6a11.177,11.177,0,1,1,7.893,3.264A11.175,11.175,0,0,1,66.961,105.456Z" transform="translate(5 4)" fill="rgba(255,194,15,0.3)"/>
</svg>
