<svg id="pattern" xmlns="http://www.w3.org/2000/svg" width="200" height="200" viewBox="0 0 200 200">
  <g id="Home-Screen" transform="translate(-1133 -4800)">
    <g id="Combined-Shape-2-Copy-2" transform="translate(1133 4800)">
      <path id="Combined-Shape" d="M2.564,5.128A2.564,2.564,0,1,1,5.128,2.564,2.564,2.564,0,0,1,2.564,5.128Zm10.256,0a2.564,2.564,0,1,1,2.564-2.564A2.564,2.564,0,0,1,12.821,5.128Zm10.256,0a2.564,2.564,0,1,1,2.564-2.564A2.564,2.564,0,0,1,23.077,5.128Zm10.256,0A2.564,2.564,0,1,1,35.9,2.564,2.564,2.564,0,0,1,33.333,5.128Zm10.256,0a2.564,2.564,0,1,1,2.564-2.564A2.564,2.564,0,0,1,43.59,5.128Zm10.257,0A2.564,2.564,0,1,1,56.41,2.564,2.564,2.564,0,0,1,53.846,5.128Zm10.256,0a2.564,2.564,0,1,1,2.564-2.564A2.564,2.564,0,0,1,64.1,5.128Zm10.256,0a2.564,2.564,0,1,1,2.564-2.564A2.564,2.564,0,0,1,74.359,5.128Zm10.256,0a2.564,2.564,0,1,1,2.564-2.564A2.564,2.564,0,0,1,84.615,5.128Zm10.256,0a2.564,2.564,0,1,1,2.564-2.564A2.564,2.564,0,0,1,94.872,5.128Zm10.256,0a2.564,2.564,0,1,1,2.564-2.564A2.564,2.564,0,0,1,105.128,5.128Zm10.257,0a2.564,2.564,0,1,1,2.564-2.564A2.563,2.563,0,0,1,115.385,5.128Zm10.256,0a2.564,2.564,0,1,1,2.564-2.564A2.564,2.564,0,0,1,125.641,5.128Zm10.256,0a2.564,2.564,0,1,1,2.565-2.564A2.564,2.564,0,0,1,135.9,5.128Zm10.257,0a2.564,2.564,0,1,1,2.564-2.564A2.564,2.564,0,0,1,146.154,5.128Zm10.256,0a2.564,2.564,0,1,1,2.564-2.564A2.564,2.564,0,0,1,156.41,5.128Zm10.257,0a2.564,2.564,0,1,1,2.564-2.564A2.564,2.564,0,0,1,166.667,5.128Zm10.256,0a2.564,2.564,0,1,1,2.564-2.564A2.564,2.564,0,0,1,176.923,5.128Zm10.256,0a2.564,2.564,0,1,1,2.565-2.564A2.564,2.564,0,0,1,187.179,5.128Zm10.257,0A2.564,2.564,0,1,1,200,2.564,2.564,2.564,0,0,1,197.436,5.128ZM2.564,15.385a2.564,2.564,0,1,1,2.564-2.564A2.564,2.564,0,0,1,2.564,15.385Zm10.256,0a2.564,2.564,0,1,1,2.564-2.564A2.564,2.564,0,0,1,12.821,15.385Zm10.256,0a2.564,2.564,0,1,1,2.564-2.564A2.564,2.564,0,0,1,23.077,15.385Zm10.256,0A2.564,2.564,0,1,1,35.9,12.821,2.564,2.564,0,0,1,33.333,15.385Zm10.256,0a2.564,2.564,0,1,1,2.564-2.564A2.564,2.564,0,0,1,43.59,15.385Zm10.257,0a2.564,2.564,0,1,1,2.564-2.564A2.564,2.564,0,0,1,53.846,15.385Zm10.256,0a2.564,2.564,0,1,1,2.564-2.564A2.564,2.564,0,0,1,64.1,15.385Zm10.256,0a2.564,2.564,0,1,1,2.564-2.564A2.564,2.564,0,0,1,74.359,15.385Zm10.256,0a2.564,2.564,0,1,1,2.564-2.564A2.564,2.564,0,0,1,84.615,15.385Zm10.256,0a2.564,2.564,0,1,1,2.564-2.564A2.564,2.564,0,0,1,94.872,15.385Zm10.256,0a2.564,2.564,0,1,1,2.564-2.564A2.564,2.564,0,0,1,105.128,15.385Zm10.257,0a2.564,2.564,0,1,1,2.564-2.564A2.563,2.563,0,0,1,115.385,15.385Zm10.256,0a2.564,2.564,0,1,1,2.564-2.564A2.564,2.564,0,0,1,125.641,15.385Zm10.256,0a2.564,2.564,0,1,1,2.565-2.564A2.564,2.564,0,0,1,135.9,15.385Zm10.257,0a2.564,2.564,0,1,1,2.564-2.564A2.564,2.564,0,0,1,146.154,15.385Zm10.256,0a2.564,2.564,0,1,1,2.564-2.564A2.564,2.564,0,0,1,156.41,15.385Zm10.257,0a2.564,2.564,0,1,1,2.564-2.564A2.564,2.564,0,0,1,166.667,15.385Zm10.256,0a2.564,2.564,0,1,1,2.564-2.564A2.564,2.564,0,0,1,176.923,15.385Zm10.256,0a2.564,2.564,0,1,1,2.565-2.564A2.564,2.564,0,0,1,187.179,15.385Zm10.257,0A2.564,2.564,0,1,1,200,12.821,2.564,2.564,0,0,1,197.436,15.385ZM2.564,25.641a2.564,2.564,0,1,1,2.564-2.564A2.564,2.564,0,0,1,2.564,25.641Zm10.256,0a2.564,2.564,0,1,1,2.564-2.564A2.564,2.564,0,0,1,12.821,25.641Zm10.256,0a2.564,2.564,0,1,1,2.564-2.564A2.564,2.564,0,0,1,23.077,25.641Zm10.256,0A2.564,2.564,0,1,1,35.9,23.077,2.564,2.564,0,0,1,33.333,25.641Zm10.256,0a2.564,2.564,0,1,1,2.564-2.564A2.564,2.564,0,0,1,43.59,25.641Zm10.257,0a2.564,2.564,0,1,1,2.564-2.564A2.564,2.564,0,0,1,53.846,25.641Zm10.256,0a2.564,2.564,0,1,1,2.564-2.564A2.564,2.564,0,0,1,64.1,25.641Zm10.256,0a2.564,2.564,0,1,1,2.564-2.564A2.564,2.564,0,0,1,74.359,25.641Zm10.256,0a2.564,2.564,0,1,1,2.564-2.564A2.564,2.564,0,0,1,84.615,25.641Zm10.256,0a2.564,2.564,0,1,1,2.564-2.564A2.564,2.564,0,0,1,94.872,25.641Zm10.256,0a2.564,2.564,0,1,1,2.564-2.564A2.564,2.564,0,0,1,105.128,25.641Zm10.257,0a2.564,2.564,0,1,1,2.564-2.564A2.563,2.563,0,0,1,115.385,25.641Zm10.256,0a2.564,2.564,0,1,1,2.564-2.564A2.564,2.564,0,0,1,125.641,25.641Zm10.256,0a2.564,2.564,0,1,1,2.565-2.564A2.564,2.564,0,0,1,135.9,25.641Zm10.257,0a2.564,2.564,0,1,1,2.564-2.564A2.564,2.564,0,0,1,146.154,25.641Zm10.256,0a2.564,2.564,0,1,1,2.564-2.564A2.564,2.564,0,0,1,156.41,25.641Zm10.257,0a2.564,2.564,0,1,1,2.564-2.564A2.564,2.564,0,0,1,166.667,25.641Zm10.256,0a2.564,2.564,0,1,1,2.564-2.564A2.564,2.564,0,0,1,176.923,25.641Zm10.256,0a2.564,2.564,0,1,1,2.565-2.564A2.564,2.564,0,0,1,187.179,25.641Zm10.257,0A2.564,2.564,0,1,1,200,23.077,2.564,2.564,0,0,1,197.436,25.641ZM2.564,35.9a2.564,2.564,0,1,1,2.564-2.564A2.564,2.564,0,0,1,2.564,35.9Zm10.256,0a2.564,2.564,0,1,1,2.564-2.564A2.564,2.564,0,0,1,12.821,35.9Zm10.256,0a2.564,2.564,0,1,1,2.564-2.564A2.564,2.564,0,0,1,23.077,35.9Zm10.256,0A2.564,2.564,0,1,1,35.9,33.333,2.564,2.564,0,0,1,33.333,35.9Zm10.256,0a2.564,2.564,0,1,1,2.564-2.564A2.564,2.564,0,0,1,43.59,35.9Zm10.257,0a2.564,2.564,0,1,1,2.564-2.564A2.564,2.564,0,0,1,53.846,35.9Zm10.256,0a2.564,2.564,0,1,1,2.564-2.564A2.564,2.564,0,0,1,64.1,35.9Zm10.256,0a2.564,2.564,0,1,1,2.564-2.564A2.564,2.564,0,0,1,74.359,35.9Zm10.256,0a2.564,2.564,0,1,1,2.564-2.564A2.564,2.564,0,0,1,84.615,35.9Zm10.256,0a2.564,2.564,0,1,1,2.564-2.564A2.564,2.564,0,0,1,94.872,35.9Zm10.256,0a2.564,2.564,0,1,1,2.564-2.564A2.564,2.564,0,0,1,105.128,35.9Zm10.257,0a2.564,2.564,0,1,1,2.564-2.564A2.563,2.563,0,0,1,115.385,35.9Zm10.256,0a2.564,2.564,0,1,1,2.564-2.564A2.564,2.564,0,0,1,125.641,35.9Zm10.256,0a2.564,2.564,0,1,1,2.565-2.564A2.564,2.564,0,0,1,135.9,35.9Zm10.257,0a2.564,2.564,0,1,1,2.564-2.564A2.564,2.564,0,0,1,146.154,35.9Zm10.256,0a2.564,2.564,0,1,1,2.564-2.564A2.564,2.564,0,0,1,156.41,35.9Zm10.257,0a2.564,2.564,0,1,1,2.564-2.564A2.564,2.564,0,0,1,166.667,35.9Zm10.256,0a2.564,2.564,0,1,1,2.564-2.564A2.564,2.564,0,0,1,176.923,35.9Zm10.256,0a2.564,2.564,0,1,1,2.565-2.564A2.564,2.564,0,0,1,187.179,35.9Zm10.257,0A2.564,2.564,0,1,1,200,33.333,2.564,2.564,0,0,1,197.436,35.9ZM2.564,46.154A2.564,2.564,0,1,1,5.128,43.59,2.564,2.564,0,0,1,2.564,46.154Zm10.256,0a2.564,2.564,0,1,1,2.564-2.564A2.564,2.564,0,0,1,12.821,46.154Zm10.256,0a2.564,2.564,0,1,1,2.564-2.564A2.564,2.564,0,0,1,23.077,46.154Zm10.256,0A2.564,2.564,0,1,1,35.9,43.59,2.564,2.564,0,0,1,33.333,46.154Zm10.256,0a2.564,2.564,0,1,1,2.564-2.564A2.564,2.564,0,0,1,43.59,46.154Zm10.257,0A2.564,2.564,0,1,1,56.41,43.59,2.564,2.564,0,0,1,53.846,46.154Zm10.256,0a2.564,2.564,0,1,1,2.564-2.564A2.564,2.564,0,0,1,64.1,46.154Zm10.256,0a2.564,2.564,0,1,1,2.564-2.564A2.564,2.564,0,0,1,74.359,46.154Zm10.256,0a2.564,2.564,0,1,1,2.564-2.564A2.564,2.564,0,0,1,84.615,46.154Zm10.256,0a2.564,2.564,0,1,1,2.564-2.564A2.564,2.564,0,0,1,94.872,46.154Zm10.256,0a2.564,2.564,0,1,1,2.564-2.564A2.564,2.564,0,0,1,105.128,46.154Zm10.257,0a2.564,2.564,0,1,1,2.564-2.564A2.563,2.563,0,0,1,115.385,46.154Zm10.256,0a2.564,2.564,0,1,1,2.564-2.564A2.564,2.564,0,0,1,125.641,46.154Zm10.256,0a2.564,2.564,0,1,1,2.565-2.564A2.564,2.564,0,0,1,135.9,46.154Zm10.257,0a2.564,2.564,0,1,1,2.564-2.564A2.564,2.564,0,0,1,146.154,46.154Zm10.256,0a2.564,2.564,0,1,1,2.564-2.564A2.564,2.564,0,0,1,156.41,46.154Zm10.257,0a2.564,2.564,0,1,1,2.564-2.564A2.564,2.564,0,0,1,166.667,46.154Zm10.256,0a2.564,2.564,0,1,1,2.564-2.564A2.564,2.564,0,0,1,176.923,46.154Zm10.256,0a2.564,2.564,0,1,1,2.565-2.564A2.564,2.564,0,0,1,187.179,46.154Zm10.257,0A2.564,2.564,0,1,1,200,43.59,2.564,2.564,0,0,1,197.436,46.154ZM2.564,56.41a2.564,2.564,0,1,1,2.564-2.564A2.564,2.564,0,0,1,2.564,56.41Zm10.256,0a2.564,2.564,0,1,1,2.564-2.564A2.564,2.564,0,0,1,12.821,56.41Zm10.256,0a2.564,2.564,0,1,1,2.564-2.564A2.564,2.564,0,0,1,23.077,56.41Zm10.256,0A2.564,2.564,0,1,1,35.9,53.846,2.564,2.564,0,0,1,33.333,56.41Zm10.256,0a2.564,2.564,0,1,1,2.564-2.564A2.564,2.564,0,0,1,43.59,56.41Zm10.257,0a2.564,2.564,0,1,1,2.564-2.564A2.564,2.564,0,0,1,53.846,56.41Zm10.256,0a2.564,2.564,0,1,1,2.564-2.564A2.564,2.564,0,0,1,64.1,56.41Zm10.256,0a2.564,2.564,0,1,1,2.564-2.564A2.564,2.564,0,0,1,74.359,56.41Zm10.256,0a2.564,2.564,0,1,1,2.564-2.564A2.564,2.564,0,0,1,84.615,56.41Zm10.256,0a2.564,2.564,0,1,1,2.564-2.564A2.564,2.564,0,0,1,94.872,56.41Zm10.256,0a2.564,2.564,0,1,1,2.564-2.564A2.564,2.564,0,0,1,105.128,56.41Zm10.257,0a2.564,2.564,0,1,1,2.564-2.564A2.563,2.563,0,0,1,115.385,56.41Zm10.256,0a2.564,2.564,0,1,1,2.564-2.564A2.564,2.564,0,0,1,125.641,56.41Zm10.256,0a2.564,2.564,0,1,1,2.565-2.564A2.564,2.564,0,0,1,135.9,56.41Zm10.257,0a2.564,2.564,0,1,1,2.564-2.564A2.564,2.564,0,0,1,146.154,56.41Zm10.256,0a2.564,2.564,0,1,1,2.564-2.564A2.564,2.564,0,0,1,156.41,56.41Zm10.257,0a2.564,2.564,0,1,1,2.564-2.564A2.564,2.564,0,0,1,166.667,56.41Zm10.256,0a2.564,2.564,0,1,1,2.564-2.564A2.564,2.564,0,0,1,176.923,56.41Zm10.256,0a2.564,2.564,0,1,1,2.565-2.564A2.564,2.564,0,0,1,187.179,56.41Zm10.257,0A2.564,2.564,0,1,1,200,53.846,2.564,2.564,0,0,1,197.436,56.41ZM2.564,66.667A2.564,2.564,0,1,1,5.128,64.1,2.564,2.564,0,0,1,2.564,66.667Zm10.256,0A2.564,2.564,0,1,1,15.385,64.1,2.564,2.564,0,0,1,12.821,66.667Zm10.256,0A2.564,2.564,0,1,1,25.641,64.1,2.564,2.564,0,0,1,23.077,66.667Zm10.256,0A2.564,2.564,0,1,1,35.9,64.1,2.564,2.564,0,0,1,33.333,66.667Zm10.256,0A2.564,2.564,0,1,1,46.154,64.1,2.564,2.564,0,0,1,43.59,66.667Zm10.257,0A2.564,2.564,0,1,1,56.41,64.1,2.564,2.564,0,0,1,53.846,66.667Zm10.256,0A2.564,2.564,0,1,1,66.667,64.1,2.564,2.564,0,0,1,64.1,66.667Zm10.256,0A2.564,2.564,0,1,1,76.923,64.1,2.564,2.564,0,0,1,74.359,66.667Zm10.256,0A2.564,2.564,0,1,1,87.179,64.1,2.564,2.564,0,0,1,84.615,66.667Zm10.256,0A2.564,2.564,0,1,1,97.436,64.1,2.564,2.564,0,0,1,94.872,66.667Zm10.256,0a2.564,2.564,0,1,1,2.564-2.564A2.564,2.564,0,0,1,105.128,66.667Zm10.257,0a2.564,2.564,0,1,1,2.564-2.564A2.563,2.563,0,0,1,115.385,66.667Zm10.256,0a2.564,2.564,0,1,1,2.564-2.564A2.564,2.564,0,0,1,125.641,66.667Zm10.256,0a2.564,2.564,0,1,1,2.565-2.564A2.564,2.564,0,0,1,135.9,66.667Zm10.257,0a2.564,2.564,0,1,1,2.564-2.564A2.564,2.564,0,0,1,146.154,66.667Zm10.256,0a2.564,2.564,0,1,1,2.564-2.564A2.564,2.564,0,0,1,156.41,66.667Zm10.257,0a2.564,2.564,0,1,1,2.564-2.564A2.564,2.564,0,0,1,166.667,66.667Zm10.256,0a2.564,2.564,0,1,1,2.564-2.564A2.564,2.564,0,0,1,176.923,66.667Zm10.256,0a2.564,2.564,0,1,1,2.565-2.564A2.564,2.564,0,0,1,187.179,66.667Zm10.257,0A2.564,2.564,0,1,1,200,64.1,2.564,2.564,0,0,1,197.436,66.667ZM2.564,76.923a2.564,2.564,0,1,1,2.564-2.564A2.564,2.564,0,0,1,2.564,76.923Zm10.256,0a2.564,2.564,0,1,1,2.564-2.564A2.564,2.564,0,0,1,12.821,76.923Zm10.256,0a2.564,2.564,0,1,1,2.564-2.564A2.564,2.564,0,0,1,23.077,76.923Zm10.256,0A2.564,2.564,0,1,1,35.9,74.359,2.564,2.564,0,0,1,33.333,76.923Zm10.256,0a2.564,2.564,0,1,1,2.564-2.564A2.564,2.564,0,0,1,43.59,76.923Zm10.257,0a2.564,2.564,0,1,1,2.564-2.564A2.564,2.564,0,0,1,53.846,76.923Zm10.256,0a2.564,2.564,0,1,1,2.564-2.564A2.564,2.564,0,0,1,64.1,76.923Zm10.256,0a2.564,2.564,0,1,1,2.564-2.564A2.564,2.564,0,0,1,74.359,76.923Zm10.256,0a2.564,2.564,0,1,1,2.564-2.564A2.564,2.564,0,0,1,84.615,76.923Zm10.256,0a2.564,2.564,0,1,1,2.564-2.564A2.564,2.564,0,0,1,94.872,76.923Zm10.256,0a2.564,2.564,0,1,1,2.564-2.564A2.564,2.564,0,0,1,105.128,76.923Zm10.257,0a2.564,2.564,0,1,1,2.564-2.564A2.563,2.563,0,0,1,115.385,76.923Zm10.256,0a2.564,2.564,0,1,1,2.564-2.564A2.564,2.564,0,0,1,125.641,76.923Zm10.256,0a2.564,2.564,0,1,1,2.565-2.564A2.564,2.564,0,0,1,135.9,76.923Zm10.257,0a2.564,2.564,0,1,1,2.564-2.564A2.564,2.564,0,0,1,146.154,76.923Zm10.256,0a2.564,2.564,0,1,1,2.564-2.564A2.564,2.564,0,0,1,156.41,76.923Zm10.257,0a2.564,2.564,0,1,1,2.564-2.564A2.564,2.564,0,0,1,166.667,76.923Zm10.256,0a2.564,2.564,0,1,1,2.564-2.564A2.564,2.564,0,0,1,176.923,76.923Zm10.256,0a2.564,2.564,0,1,1,2.565-2.564A2.564,2.564,0,0,1,187.179,76.923Zm10.257,0A2.564,2.564,0,1,1,200,74.359,2.564,2.564,0,0,1,197.436,76.923ZM2.564,87.179a2.564,2.564,0,1,1,2.564-2.564A2.564,2.564,0,0,1,2.564,87.179Zm10.256,0a2.564,2.564,0,1,1,2.564-2.564A2.564,2.564,0,0,1,12.821,87.179Zm10.256,0a2.564,2.564,0,1,1,2.564-2.564A2.564,2.564,0,0,1,23.077,87.179Zm10.256,0A2.564,2.564,0,1,1,35.9,84.615,2.564,2.564,0,0,1,33.333,87.179Zm10.256,0a2.564,2.564,0,1,1,2.564-2.564A2.564,2.564,0,0,1,43.59,87.179Zm10.257,0a2.564,2.564,0,1,1,2.564-2.564A2.564,2.564,0,0,1,53.846,87.179Zm10.256,0a2.564,2.564,0,1,1,2.564-2.564A2.564,2.564,0,0,1,64.1,87.179Zm10.256,0a2.564,2.564,0,1,1,2.564-2.564A2.564,2.564,0,0,1,74.359,87.179Zm10.256,0a2.564,2.564,0,1,1,2.564-2.564A2.564,2.564,0,0,1,84.615,87.179Zm10.256,0a2.564,2.564,0,1,1,2.564-2.564A2.564,2.564,0,0,1,94.872,87.179Zm10.256,0a2.564,2.564,0,1,1,2.564-2.564A2.564,2.564,0,0,1,105.128,87.179Zm10.257,0a2.564,2.564,0,1,1,2.564-2.564A2.563,2.563,0,0,1,115.385,87.179Zm10.256,0a2.564,2.564,0,1,1,2.564-2.564A2.564,2.564,0,0,1,125.641,87.179Zm10.256,0a2.564,2.564,0,1,1,2.565-2.564A2.564,2.564,0,0,1,135.9,87.179Zm10.257,0a2.564,2.564,0,1,1,2.564-2.564A2.564,2.564,0,0,1,146.154,87.179Zm10.256,0a2.564,2.564,0,1,1,2.564-2.564A2.564,2.564,0,0,1,156.41,87.179Zm10.257,0a2.564,2.564,0,1,1,2.564-2.564A2.564,2.564,0,0,1,166.667,87.179Zm10.256,0a2.564,2.564,0,1,1,2.564-2.564A2.564,2.564,0,0,1,176.923,87.179Zm10.256,0a2.564,2.564,0,1,1,2.565-2.564A2.564,2.564,0,0,1,187.179,87.179Zm10.257,0A2.564,2.564,0,1,1,200,84.615,2.564,2.564,0,0,1,197.436,87.179ZM2.564,97.436a2.564,2.564,0,1,1,2.564-2.564A2.564,2.564,0,0,1,2.564,97.436Zm10.256,0a2.564,2.564,0,1,1,2.564-2.564A2.564,2.564,0,0,1,12.821,97.436Zm10.256,0a2.564,2.564,0,1,1,2.564-2.564A2.564,2.564,0,0,1,23.077,97.436Zm10.256,0A2.564,2.564,0,1,1,35.9,94.872,2.564,2.564,0,0,1,33.333,97.436Zm10.256,0a2.564,2.564,0,1,1,2.564-2.564A2.564,2.564,0,0,1,43.59,97.436Zm10.257,0a2.564,2.564,0,1,1,2.564-2.564A2.564,2.564,0,0,1,53.846,97.436Zm10.256,0a2.564,2.564,0,1,1,2.564-2.564A2.564,2.564,0,0,1,64.1,97.436Zm10.256,0a2.564,2.564,0,1,1,2.564-2.564A2.564,2.564,0,0,1,74.359,97.436Zm10.256,0a2.564,2.564,0,1,1,2.564-2.564A2.564,2.564,0,0,1,84.615,97.436Zm10.256,0a2.564,2.564,0,1,1,2.564-2.564A2.564,2.564,0,0,1,94.872,97.436Zm10.256,0a2.564,2.564,0,1,1,2.564-2.564A2.564,2.564,0,0,1,105.128,97.436Zm10.257,0a2.564,2.564,0,1,1,2.564-2.564A2.563,2.563,0,0,1,115.385,97.436Zm10.256,0a2.564,2.564,0,1,1,2.564-2.564A2.564,2.564,0,0,1,125.641,97.436Zm10.256,0a2.564,2.564,0,1,1,2.565-2.564A2.564,2.564,0,0,1,135.9,97.436Zm10.257,0a2.564,2.564,0,1,1,2.564-2.564A2.564,2.564,0,0,1,146.154,97.436Zm10.256,0a2.564,2.564,0,1,1,2.564-2.564A2.564,2.564,0,0,1,156.41,97.436Zm10.257,0a2.564,2.564,0,1,1,2.564-2.564A2.564,2.564,0,0,1,166.667,97.436Zm10.256,0a2.564,2.564,0,1,1,2.564-2.564A2.564,2.564,0,0,1,176.923,97.436Zm10.256,0a2.564,2.564,0,1,1,2.565-2.564A2.564,2.564,0,0,1,187.179,97.436Zm10.257,0A2.564,2.564,0,1,1,200,94.872,2.564,2.564,0,0,1,197.436,97.436ZM2.564,107.692a2.564,2.564,0,1,1,2.564-2.564A2.564,2.564,0,0,1,2.564,107.692Zm10.256,0a2.564,2.564,0,1,1,2.564-2.564A2.564,2.564,0,0,1,12.821,107.692Zm10.256,0a2.564,2.564,0,1,1,2.564-2.564A2.564,2.564,0,0,1,23.077,107.692Zm10.256,0a2.564,2.564,0,1,1,2.564-2.564A2.564,2.564,0,0,1,33.333,107.692Zm10.256,0a2.564,2.564,0,1,1,2.564-2.564A2.564,2.564,0,0,1,43.59,107.692Zm10.257,0a2.564,2.564,0,1,1,2.564-2.564A2.564,2.564,0,0,1,53.846,107.692Zm10.256,0a2.564,2.564,0,1,1,2.564-2.564A2.564,2.564,0,0,1,64.1,107.692Zm10.256,0a2.564,2.564,0,1,1,2.564-2.564A2.564,2.564,0,0,1,74.359,107.692Zm10.256,0a2.564,2.564,0,1,1,2.564-2.564A2.564,2.564,0,0,1,84.615,107.692Zm10.256,0a2.564,2.564,0,1,1,2.564-2.564A2.564,2.564,0,0,1,94.872,107.692Zm10.256,0a2.564,2.564,0,1,1,2.564-2.564A2.564,2.564,0,0,1,105.128,107.692Zm10.257,0a2.564,2.564,0,1,1,2.564-2.564A2.563,2.563,0,0,1,115.385,107.692Zm10.256,0a2.564,2.564,0,1,1,2.564-2.564A2.564,2.564,0,0,1,125.641,107.692Zm10.256,0a2.564,2.564,0,1,1,2.565-2.564A2.564,2.564,0,0,1,135.9,107.692Zm10.257,0a2.564,2.564,0,1,1,2.564-2.564A2.564,2.564,0,0,1,146.154,107.692Zm10.256,0a2.564,2.564,0,1,1,2.564-2.564A2.564,2.564,0,0,1,156.41,107.692Zm10.257,0a2.564,2.564,0,1,1,2.564-2.564A2.564,2.564,0,0,1,166.667,107.692Zm10.256,0a2.564,2.564,0,1,1,2.564-2.564A2.564,2.564,0,0,1,176.923,107.692Zm10.256,0a2.564,2.564,0,1,1,2.565-2.564A2.564,2.564,0,0,1,187.179,107.692Zm10.257,0A2.564,2.564,0,1,1,200,105.128,2.564,2.564,0,0,1,197.436,107.692ZM2.564,117.949a2.564,2.564,0,1,1,2.564-2.564A2.564,2.564,0,0,1,2.564,117.949Zm10.256,0a2.564,2.564,0,1,1,2.564-2.564A2.564,2.564,0,0,1,12.821,117.949Zm10.256,0a2.564,2.564,0,1,1,2.564-2.564A2.564,2.564,0,0,1,23.077,117.949Zm10.256,0a2.564,2.564,0,1,1,2.564-2.564A2.564,2.564,0,0,1,33.333,117.949Zm10.256,0a2.564,2.564,0,1,1,2.564-2.564A2.564,2.564,0,0,1,43.59,117.949Zm10.257,0a2.564,2.564,0,1,1,2.564-2.564A2.564,2.564,0,0,1,53.846,117.949Zm10.256,0a2.564,2.564,0,1,1,2.564-2.564A2.564,2.564,0,0,1,64.1,117.949Zm10.256,0a2.564,2.564,0,1,1,2.564-2.564A2.564,2.564,0,0,1,74.359,117.949Zm10.256,0a2.564,2.564,0,1,1,2.564-2.564A2.564,2.564,0,0,1,84.615,117.949Zm10.256,0a2.564,2.564,0,1,1,2.564-2.564A2.564,2.564,0,0,1,94.872,117.949Zm10.256,0a2.564,2.564,0,1,1,2.564-2.564A2.564,2.564,0,0,1,105.128,117.949Zm10.257,0a2.564,2.564,0,1,1,2.564-2.564A2.563,2.563,0,0,1,115.385,117.949Zm10.256,0a2.564,2.564,0,1,1,2.564-2.564A2.564,2.564,0,0,1,125.641,117.949Zm10.256,0a2.564,2.564,0,1,1,2.565-2.564A2.564,2.564,0,0,1,135.9,117.949Zm10.257,0a2.564,2.564,0,1,1,2.564-2.564A2.564,2.564,0,0,1,146.154,117.949Zm10.256,0a2.564,2.564,0,1,1,2.564-2.564A2.564,2.564,0,0,1,156.41,117.949Zm10.257,0a2.564,2.564,0,1,1,2.564-2.564A2.564,2.564,0,0,1,166.667,117.949Zm10.256,0a2.564,2.564,0,1,1,2.564-2.564A2.564,2.564,0,0,1,176.923,117.949Zm10.256,0a2.564,2.564,0,1,1,2.565-2.564A2.564,2.564,0,0,1,187.179,117.949Zm10.257,0A2.564,2.564,0,1,1,200,115.385,2.564,2.564,0,0,1,197.436,117.949ZM2.564,128.205a2.564,2.564,0,1,1,2.564-2.564A2.564,2.564,0,0,1,2.564,128.205Zm10.256,0a2.564,2.564,0,1,1,2.564-2.564A2.564,2.564,0,0,1,12.821,128.205Zm10.256,0a2.564,2.564,0,1,1,2.564-2.564A2.564,2.564,0,0,1,23.077,128.205Zm10.256,0a2.564,2.564,0,1,1,2.564-2.564A2.564,2.564,0,0,1,33.333,128.205Zm10.256,0a2.564,2.564,0,1,1,2.564-2.564A2.564,2.564,0,0,1,43.59,128.205Zm10.257,0a2.564,2.564,0,1,1,2.564-2.564A2.564,2.564,0,0,1,53.846,128.205Zm10.256,0a2.564,2.564,0,1,1,2.564-2.564A2.564,2.564,0,0,1,64.1,128.205Zm10.256,0a2.564,2.564,0,1,1,2.564-2.564A2.564,2.564,0,0,1,74.359,128.205Zm10.256,0a2.564,2.564,0,1,1,2.564-2.564A2.564,2.564,0,0,1,84.615,128.205Zm10.256,0a2.564,2.564,0,1,1,2.564-2.564A2.564,2.564,0,0,1,94.872,128.205Zm10.256,0a2.564,2.564,0,1,1,2.564-2.564A2.564,2.564,0,0,1,105.128,128.205Zm10.257,0a2.564,2.564,0,1,1,2.564-2.564A2.563,2.563,0,0,1,115.385,128.205Zm10.256,0a2.564,2.564,0,1,1,2.564-2.564A2.564,2.564,0,0,1,125.641,128.205Zm10.256,0a2.564,2.564,0,1,1,2.565-2.564A2.564,2.564,0,0,1,135.9,128.205Zm10.257,0a2.564,2.564,0,1,1,2.564-2.564A2.564,2.564,0,0,1,146.154,128.205Zm10.256,0a2.564,2.564,0,1,1,2.564-2.564A2.564,2.564,0,0,1,156.41,128.205Zm10.257,0a2.564,2.564,0,1,1,2.564-2.564A2.564,2.564,0,0,1,166.667,128.205Zm10.256,0a2.564,2.564,0,1,1,2.564-2.564A2.564,2.564,0,0,1,176.923,128.205Zm10.256,0a2.564,2.564,0,1,1,2.565-2.564A2.564,2.564,0,0,1,187.179,128.205Zm10.257,0A2.564,2.564,0,1,1,200,125.641,2.564,2.564,0,0,1,197.436,128.205ZM2.564,138.462A2.565,2.565,0,1,1,5.128,135.9,2.564,2.564,0,0,1,2.564,138.462Zm10.256,0a2.565,2.565,0,1,1,2.564-2.565A2.564,2.564,0,0,1,12.821,138.462Zm10.256,0a2.565,2.565,0,1,1,2.564-2.565A2.564,2.564,0,0,1,23.077,138.462Zm10.256,0A2.565,2.565,0,1,1,35.9,135.9,2.564,2.564,0,0,1,33.333,138.462Zm10.256,0a2.565,2.565,0,1,1,2.564-2.565A2.564,2.564,0,0,1,43.59,138.462Zm10.257,0A2.565,2.565,0,1,1,56.41,135.9,2.564,2.564,0,0,1,53.846,138.462Zm10.256,0a2.565,2.565,0,1,1,2.564-2.565A2.564,2.564,0,0,1,64.1,138.462Zm10.256,0a2.565,2.565,0,1,1,2.564-2.565A2.564,2.564,0,0,1,74.359,138.462Zm10.256,0a2.565,2.565,0,1,1,2.564-2.565A2.564,2.564,0,0,1,84.615,138.462Zm10.256,0a2.565,2.565,0,1,1,2.564-2.565A2.564,2.564,0,0,1,94.872,138.462Zm10.256,0a2.565,2.565,0,1,1,2.564-2.565A2.564,2.564,0,0,1,105.128,138.462Zm10.257,0a2.565,2.565,0,1,1,2.564-2.565A2.564,2.564,0,0,1,115.385,138.462Zm10.256,0a2.565,2.565,0,1,1,2.564-2.565A2.564,2.564,0,0,1,125.641,138.462Zm10.256,0a2.565,2.565,0,1,1,2.565-2.565A2.564,2.564,0,0,1,135.9,138.462Zm10.257,0a2.565,2.565,0,1,1,2.564-2.565A2.564,2.564,0,0,1,146.154,138.462Zm10.256,0a2.565,2.565,0,1,1,2.564-2.565A2.564,2.564,0,0,1,156.41,138.462Zm10.257,0a2.565,2.565,0,1,1,2.564-2.565A2.564,2.564,0,0,1,166.667,138.462Zm10.256,0a2.565,2.565,0,1,1,2.564-2.565A2.564,2.564,0,0,1,176.923,138.462Zm10.256,0a2.565,2.565,0,1,1,2.565-2.565A2.564,2.564,0,0,1,187.179,138.462Zm10.257,0A2.565,2.565,0,1,1,200,135.9,2.564,2.564,0,0,1,197.436,138.462ZM2.564,148.718a2.564,2.564,0,1,1,2.564-2.564A2.564,2.564,0,0,1,2.564,148.718Zm10.256,0a2.564,2.564,0,1,1,2.564-2.564A2.564,2.564,0,0,1,12.821,148.718Zm10.256,0a2.564,2.564,0,1,1,2.564-2.564A2.564,2.564,0,0,1,23.077,148.718Zm10.256,0a2.564,2.564,0,1,1,2.564-2.564A2.564,2.564,0,0,1,33.333,148.718Zm10.256,0a2.564,2.564,0,1,1,2.564-2.564A2.564,2.564,0,0,1,43.59,148.718Zm10.257,0a2.564,2.564,0,1,1,2.564-2.564A2.564,2.564,0,0,1,53.846,148.718Zm10.256,0a2.564,2.564,0,1,1,2.564-2.564A2.564,2.564,0,0,1,64.1,148.718Zm10.256,0a2.564,2.564,0,1,1,2.564-2.564A2.564,2.564,0,0,1,74.359,148.718Zm10.256,0a2.564,2.564,0,1,1,2.564-2.564A2.564,2.564,0,0,1,84.615,148.718Zm10.256,0a2.564,2.564,0,1,1,2.564-2.564A2.564,2.564,0,0,1,94.872,148.718Zm10.256,0a2.564,2.564,0,1,1,2.564-2.564A2.564,2.564,0,0,1,105.128,148.718Zm10.257,0a2.564,2.564,0,1,1,2.564-2.564A2.563,2.563,0,0,1,115.385,148.718Zm10.256,0a2.564,2.564,0,1,1,2.564-2.564A2.564,2.564,0,0,1,125.641,148.718Zm10.256,0a2.564,2.564,0,1,1,2.565-2.564A2.564,2.564,0,0,1,135.9,148.718Zm10.257,0a2.564,2.564,0,1,1,2.564-2.564A2.564,2.564,0,0,1,146.154,148.718Zm10.256,0a2.564,2.564,0,1,1,2.564-2.564A2.564,2.564,0,0,1,156.41,148.718Zm10.257,0a2.564,2.564,0,1,1,2.564-2.564A2.564,2.564,0,0,1,166.667,148.718Zm10.256,0a2.564,2.564,0,1,1,2.564-2.564A2.564,2.564,0,0,1,176.923,148.718Zm10.256,0a2.564,2.564,0,1,1,2.565-2.564A2.564,2.564,0,0,1,187.179,148.718Zm10.257,0A2.564,2.564,0,1,1,200,146.154,2.564,2.564,0,0,1,197.436,148.718ZM2.564,158.974a2.564,2.564,0,1,1,2.564-2.564A2.564,2.564,0,0,1,2.564,158.974Zm10.256,0a2.564,2.564,0,1,1,2.564-2.564A2.564,2.564,0,0,1,12.821,158.974Zm10.256,0a2.564,2.564,0,1,1,2.564-2.564A2.564,2.564,0,0,1,23.077,158.974Zm10.256,0A2.564,2.564,0,1,1,35.9,156.41,2.564,2.564,0,0,1,33.333,158.974Zm10.256,0a2.564,2.564,0,1,1,2.564-2.564A2.564,2.564,0,0,1,43.59,158.974Zm10.257,0a2.564,2.564,0,1,1,2.564-2.564A2.564,2.564,0,0,1,53.846,158.974Zm10.256,0a2.564,2.564,0,1,1,2.564-2.564A2.564,2.564,0,0,1,64.1,158.974Zm10.256,0a2.564,2.564,0,1,1,2.564-2.564A2.564,2.564,0,0,1,74.359,158.974Zm10.256,0a2.564,2.564,0,1,1,2.564-2.564A2.564,2.564,0,0,1,84.615,158.974Zm10.256,0a2.564,2.564,0,1,1,2.564-2.564A2.564,2.564,0,0,1,94.872,158.974Zm10.256,0a2.564,2.564,0,1,1,2.564-2.564A2.564,2.564,0,0,1,105.128,158.974Zm10.257,0a2.564,2.564,0,1,1,2.564-2.564A2.563,2.563,0,0,1,115.385,158.974Zm10.256,0a2.564,2.564,0,1,1,2.564-2.564A2.564,2.564,0,0,1,125.641,158.974Zm10.256,0a2.564,2.564,0,1,1,2.565-2.564A2.564,2.564,0,0,1,135.9,158.974Zm10.257,0a2.564,2.564,0,1,1,2.564-2.564A2.564,2.564,0,0,1,146.154,158.974Zm10.256,0a2.564,2.564,0,1,1,2.564-2.564A2.564,2.564,0,0,1,156.41,158.974Zm10.257,0a2.564,2.564,0,1,1,2.564-2.564A2.564,2.564,0,0,1,166.667,158.974Zm10.256,0a2.564,2.564,0,1,1,2.564-2.564A2.564,2.564,0,0,1,176.923,158.974Zm10.256,0a2.564,2.564,0,1,1,2.565-2.564A2.564,2.564,0,0,1,187.179,158.974Zm10.257,0A2.564,2.564,0,1,1,200,156.41,2.564,2.564,0,0,1,197.436,158.974ZM2.564,169.231a2.564,2.564,0,1,1,2.564-2.564A2.564,2.564,0,0,1,2.564,169.231Zm10.256,0a2.564,2.564,0,1,1,2.564-2.564A2.564,2.564,0,0,1,12.821,169.231Zm10.256,0a2.564,2.564,0,1,1,2.564-2.564A2.564,2.564,0,0,1,23.077,169.231Zm10.256,0a2.564,2.564,0,1,1,2.564-2.564A2.564,2.564,0,0,1,33.333,169.231Zm10.256,0a2.564,2.564,0,1,1,2.564-2.564A2.564,2.564,0,0,1,43.59,169.231Zm10.257,0a2.564,2.564,0,1,1,2.564-2.564A2.564,2.564,0,0,1,53.846,169.231Zm10.256,0a2.564,2.564,0,1,1,2.564-2.564A2.564,2.564,0,0,1,64.1,169.231Zm10.256,0a2.564,2.564,0,1,1,2.564-2.564A2.564,2.564,0,0,1,74.359,169.231Zm10.256,0a2.564,2.564,0,1,1,2.564-2.564A2.564,2.564,0,0,1,84.615,169.231Zm10.256,0a2.564,2.564,0,1,1,2.564-2.564A2.564,2.564,0,0,1,94.872,169.231Zm10.256,0a2.564,2.564,0,1,1,2.564-2.564A2.564,2.564,0,0,1,105.128,169.231Zm10.257,0a2.564,2.564,0,1,1,2.564-2.564A2.563,2.563,0,0,1,115.385,169.231Zm10.256,0a2.564,2.564,0,1,1,2.564-2.564A2.564,2.564,0,0,1,125.641,169.231Zm10.256,0a2.564,2.564,0,1,1,2.565-2.564A2.564,2.564,0,0,1,135.9,169.231Zm10.257,0a2.564,2.564,0,1,1,2.564-2.564A2.564,2.564,0,0,1,146.154,169.231Zm10.256,0a2.564,2.564,0,1,1,2.564-2.564A2.564,2.564,0,0,1,156.41,169.231Zm10.257,0a2.564,2.564,0,1,1,2.564-2.564A2.564,2.564,0,0,1,166.667,169.231Zm10.256,0a2.564,2.564,0,1,1,2.564-2.564A2.564,2.564,0,0,1,176.923,169.231Zm10.256,0a2.564,2.564,0,1,1,2.565-2.564A2.564,2.564,0,0,1,187.179,169.231Zm10.257,0A2.564,2.564,0,1,1,200,166.667,2.564,2.564,0,0,1,197.436,169.231ZM2.564,179.487a2.564,2.564,0,1,1,2.564-2.564A2.564,2.564,0,0,1,2.564,179.487Zm10.256,0a2.564,2.564,0,1,1,2.564-2.564A2.564,2.564,0,0,1,12.821,179.487Zm10.256,0a2.564,2.564,0,1,1,2.564-2.564A2.564,2.564,0,0,1,23.077,179.487Zm10.256,0a2.564,2.564,0,1,1,2.564-2.564A2.564,2.564,0,0,1,33.333,179.487Zm10.256,0a2.564,2.564,0,1,1,2.564-2.564A2.564,2.564,0,0,1,43.59,179.487Zm10.257,0a2.564,2.564,0,1,1,2.564-2.564A2.564,2.564,0,0,1,53.846,179.487Zm10.256,0a2.564,2.564,0,1,1,2.564-2.564A2.564,2.564,0,0,1,64.1,179.487Zm10.256,0a2.564,2.564,0,1,1,2.564-2.564A2.564,2.564,0,0,1,74.359,179.487Zm10.256,0a2.564,2.564,0,1,1,2.564-2.564A2.564,2.564,0,0,1,84.615,179.487Zm10.256,0a2.564,2.564,0,1,1,2.564-2.564A2.564,2.564,0,0,1,94.872,179.487Zm10.256,0a2.564,2.564,0,1,1,2.564-2.564A2.564,2.564,0,0,1,105.128,179.487Zm10.257,0a2.564,2.564,0,1,1,2.564-2.564A2.563,2.563,0,0,1,115.385,179.487Zm10.256,0a2.564,2.564,0,1,1,2.564-2.564A2.564,2.564,0,0,1,125.641,179.487Zm10.256,0a2.564,2.564,0,1,1,2.565-2.564A2.564,2.564,0,0,1,135.9,179.487Zm10.257,0a2.564,2.564,0,1,1,2.564-2.564A2.564,2.564,0,0,1,146.154,179.487Zm10.256,0a2.564,2.564,0,1,1,2.564-2.564A2.564,2.564,0,0,1,156.41,179.487Zm10.257,0a2.564,2.564,0,1,1,2.564-2.564A2.564,2.564,0,0,1,166.667,179.487Zm10.256,0a2.564,2.564,0,1,1,2.564-2.564A2.564,2.564,0,0,1,176.923,179.487Zm10.256,0a2.564,2.564,0,1,1,2.565-2.564A2.564,2.564,0,0,1,187.179,179.487Zm10.257,0A2.564,2.564,0,1,1,200,176.923,2.564,2.564,0,0,1,197.436,179.487ZM2.564,189.744a2.564,2.564,0,1,1,2.564-2.565A2.564,2.564,0,0,1,2.564,189.744Zm10.256,0a2.564,2.564,0,1,1,2.564-2.565A2.564,2.564,0,0,1,12.821,189.744Zm10.256,0a2.564,2.564,0,1,1,2.564-2.565A2.564,2.564,0,0,1,23.077,189.744Zm10.256,0a2.564,2.564,0,1,1,2.564-2.565A2.564,2.564,0,0,1,33.333,189.744Zm10.256,0a2.564,2.564,0,1,1,2.564-2.565A2.564,2.564,0,0,1,43.59,189.744Zm10.257,0a2.564,2.564,0,1,1,2.564-2.565A2.564,2.564,0,0,1,53.846,189.744Zm10.256,0a2.564,2.564,0,1,1,2.564-2.565A2.564,2.564,0,0,1,64.1,189.744Zm10.256,0a2.564,2.564,0,1,1,2.564-2.565A2.564,2.564,0,0,1,74.359,189.744Zm10.256,0a2.564,2.564,0,1,1,2.564-2.565A2.564,2.564,0,0,1,84.615,189.744Zm10.256,0a2.564,2.564,0,1,1,2.564-2.565A2.564,2.564,0,0,1,94.872,189.744Zm10.256,0a2.564,2.564,0,1,1,2.564-2.565A2.564,2.564,0,0,1,105.128,189.744Zm10.257,0a2.564,2.564,0,1,1,2.564-2.565A2.564,2.564,0,0,1,115.385,189.744Zm10.256,0a2.564,2.564,0,1,1,2.564-2.565A2.564,2.564,0,0,1,125.641,189.744Zm10.256,0a2.564,2.564,0,1,1,2.565-2.565A2.564,2.564,0,0,1,135.9,189.744Zm10.257,0a2.564,2.564,0,1,1,2.564-2.565A2.564,2.564,0,0,1,146.154,189.744Zm10.256,0a2.564,2.564,0,1,1,2.564-2.565A2.564,2.564,0,0,1,156.41,189.744Zm10.257,0a2.564,2.564,0,1,1,2.564-2.565A2.564,2.564,0,0,1,166.667,189.744Zm10.256,0a2.564,2.564,0,1,1,2.564-2.565A2.564,2.564,0,0,1,176.923,189.744Zm10.256,0a2.564,2.564,0,1,1,2.565-2.565A2.564,2.564,0,0,1,187.179,189.744Zm10.257,0A2.564,2.564,0,1,1,200,187.179,2.564,2.564,0,0,1,197.436,189.744ZM2.564,200a2.564,2.564,0,1,1,2.564-2.564A2.564,2.564,0,0,1,2.564,200Zm10.256,0a2.564,2.564,0,1,1,2.564-2.564A2.564,2.564,0,0,1,12.821,200Zm10.256,0a2.564,2.564,0,1,1,2.564-2.564A2.564,2.564,0,0,1,23.077,200Zm10.256,0a2.564,2.564,0,1,1,2.564-2.564A2.564,2.564,0,0,1,33.333,200Zm10.256,0a2.564,2.564,0,1,1,2.564-2.564A2.564,2.564,0,0,1,43.59,200Zm10.257,0a2.564,2.564,0,1,1,2.564-2.564A2.564,2.564,0,0,1,53.846,200ZM64.1,200a2.564,2.564,0,1,1,2.564-2.564A2.564,2.564,0,0,1,64.1,200Zm10.256,0a2.564,2.564,0,1,1,2.564-2.564A2.564,2.564,0,0,1,74.359,200Zm10.256,0a2.564,2.564,0,1,1,2.564-2.564A2.564,2.564,0,0,1,84.615,200Zm10.256,0a2.564,2.564,0,1,1,2.564-2.564A2.564,2.564,0,0,1,94.872,200Zm10.256,0a2.564,2.564,0,1,1,2.564-2.564A2.564,2.564,0,0,1,105.128,200Zm10.257,0a2.564,2.564,0,1,1,2.564-2.564A2.563,2.563,0,0,1,115.385,200Zm10.256,0a2.564,2.564,0,1,1,2.564-2.564A2.564,2.564,0,0,1,125.641,200Zm10.256,0a2.564,2.564,0,1,1,2.565-2.564A2.564,2.564,0,0,1,135.9,200Zm10.257,0a2.564,2.564,0,1,1,2.564-2.564A2.564,2.564,0,0,1,146.154,200Zm10.256,0a2.564,2.564,0,1,1,2.564-2.564A2.564,2.564,0,0,1,156.41,200Zm10.257,0a2.564,2.564,0,1,1,2.564-2.564A2.564,2.564,0,0,1,166.667,200Zm10.256,0a2.564,2.564,0,1,1,2.564-2.564A2.564,2.564,0,0,1,176.923,200Zm10.256,0a2.564,2.564,0,1,1,2.565-2.564A2.564,2.564,0,0,1,187.179,200Zm10.257,0A2.564,2.564,0,1,1,200,197.436,2.564,2.564,0,0,1,197.436,200Z" fill="#e8e8e8" fill-rule="evenodd"/>
    </g>
  </g>
</svg>
