<svg xmlns="http://www.w3.org/2000/svg" width="69.448" height="73.637" viewBox="0 0 69.448 73.637">
  <g id="brickwall" transform="translate(-0.274 -0.181)" opacity="0.6">
    <path id="Shape" d="M68.171,73.637H14.657a1.275,1.275,0,0,1-1.276-1.27V61.788H1.276A1.275,1.275,0,0,1,0,60.518V48.668A1.275,1.275,0,0,1,1.276,47.4h12.1v-9.31H1.276A1.274,1.274,0,0,1,0,36.819V24.97A1.275,1.275,0,0,1,1.276,23.7h12.1V13.119a1.274,1.274,0,0,1,1.276-1.27h12.1V1.27A1.275,1.275,0,0,1,28.031,0H54.792a1.274,1.274,0,0,1,1.276,1.27v10.58h12.1a1.274,1.274,0,0,1,1.275,1.27V24.97a1.274,1.274,0,0,1-1.275,1.269H56.066v9.31h12.1a1.275,1.275,0,0,1,1.276,1.27V48.668a1.274,1.274,0,0,1-1.276,1.269h-12.1v9.311h12.1a1.274,1.274,0,0,1,1.276,1.269V72.367A1.275,1.275,0,0,1,68.171,73.637ZM42.688,61.788V71.1H66.9v-9.31ZM15.935,67.712V71.1H40.143v-9.31H15.935v3.385h8.094a1.27,1.27,0,1,1,0,2.54ZM29.309,49.937v9.311H53.518V55.863H42.746a1.27,1.27,0,1,1,0-2.54H53.518V49.937Zm-26.752,0v9.311H26.764V49.937ZM42.688,38.088V47.4H66.9v-9.31ZM15.935,44.014V47.4H40.143v-9.31H15.935v3.386h5.788a1.27,1.27,0,1,1,0,2.54Zm13.374-11.85v3.386H53.518l0-9.31H29.312v3.385h7.48a1.27,1.27,0,1,1,0,2.54ZM2.556,26.239v9.31H26.764v-9.31Zm40.132-11.85V23.7H66.9V14.388Zm-26.753,0V23.7H40.143V14.388ZM29.312,2.539l0,9.311H53.518V8.465H48.58a1.27,1.27,0,1,1,0-2.54h4.941V2.539Z" transform="translate(0.274 0.181)"/>
  </g>
</svg>
