<svg xmlns="http://www.w3.org/2000/svg" width="100" height="96.875" viewBox="0 0 100 96.875">
  <g id="rocket" transform="translate(0 0)">
    <g id="Group_3" data-name="Group 3" transform="translate(0 0)">
      <path id="Shape" d="M15.755,96.875c-9.944,0-13.781-.756-15.2-3C-.7,91.9.387,89.588,1.766,86.663c1.75-3.711,4.146-8.794,3.189-15.684a8.124,8.124,0,0,1,1.912-6.507,15.349,15.349,0,0,1,5.6-4.006A27.806,27.806,0,0,1,19.46,58.4a5.261,5.261,0,0,1-.409-2.721,3.765,3.765,0,0,1,1.818-2.838l6.451-3.783-3.553-3.585-6.725-6.782a7.528,7.528,0,0,1-2.48-5.475c.068-3.851,3.57-7.141,6.384-9.785.393-.369.809-.759,1.19-1.129l.032-.031A32.786,32.786,0,0,1,31.1,16.258a23.037,23.037,0,0,1,9.424-1.985A30.744,30.744,0,0,1,50.6,16.118a103.034,103.034,0,0,1,9.226-5.874,1.476,1.476,0,1,1,1.448,2.572,107.942,107.942,0,0,0-34.539,31.46L40.368,58.028l6.5-6.547a1.476,1.476,0,1,1,2.1,2.079l-6.512,6.564L56.09,73.885C78.364,57.756,88.415,38.313,92.423,28.159c.426-1.081.835-2.182,1.215-3.274L75.268,6.405c-2.525.9-5.1,1.954-7.653,3.146a1.466,1.466,0,0,1-.624.139,1.481,1.481,0,0,1-1.338-.852,1.475,1.475,0,0,1,.713-1.962A82.07,82.07,0,0,1,81.2,1.517,46.575,46.575,0,0,1,92.07,0a19.415,19.415,0,0,1,3.478.276c2.88.532,3.619,1.26,4.159,4.1.83,4.354.073,13.173-4.538,24.865a99.806,99.806,0,0,1-11.152,20.57c5.3,15.944-2.688,24.849-6.1,28.652l-.016.017-.016.017c-.359.377-.728.776-1.118,1.2-2.624,2.842-5.89,6.379-9.722,6.446h-.112A7.474,7.474,0,0,1,61.6,83.638L53.544,75.51l-2.2-2.221-3.734,6.49a3.75,3.75,0,0,1-2.842,1.837,4.647,4.647,0,0,1-.592.038A5.283,5.283,0,0,1,40.5,80.146l-.175-.176a19.675,19.675,0,0,1-7.263,12.041C28.83,95.238,23.007,96.875,15.755,96.875Zm5.871-35.767h0a25.367,25.367,0,0,0-6.981,1.633,13.545,13.545,0,0,0-5.5,3.609,5.214,5.214,0,0,0-1.265,4.221C8.957,78.33,6.238,84.1,4.438,87.917l0,0c-.873,1.852-1.775,3.767-1.39,4.374.13.2.674.721,2.921,1.1a63.238,63.238,0,0,0,9.787.526c13.2,0,20.6-5.564,22.01-16.537l-1.854-1.87A9.5,9.5,0,0,1,31.74,80.8a14.667,14.667,0,0,1-7.649,1.826c-5.007,0-6.885-.427-7.729-1.759-.815-1.285-.169-2.655.514-4.1a11.344,11.344,0,0,0,1.413-6.842,4.6,4.6,0,0,1,1.066-3.639,9.444,9.444,0,0,1,4.694-2.728l-2.423-2.444Zm60.211-8.293L81.7,53l-.174.232A112.757,112.757,0,0,1,58.19,76L63.7,81.56a4.61,4.61,0,0,0,3.237,1.633H67c2.571-.046,5.362-3.068,7.6-5.5l.071-.077,0,0c.368-.4.715-.774,1.062-1.138a27.865,27.865,0,0,0,5.541-8.3,21.384,21.384,0,0,0,1.512-6.693A27.13,27.13,0,0,0,81.836,52.815ZM26.525,66.049c-1.744.214-3.934.949-4.9,2.111a1.659,1.659,0,0,0-.417,1.353,14.225,14.225,0,0,1-1.666,8.5l-.009.019c-.194.412-.435.924-.544,1.252a19.072,19.072,0,0,0,5.1.384c5.507,0,8.665-2.224,9.387-6.611Zm2.941-14.824-7.1,4.166a.81.81,0,0,0-.383.675,2.384,2.384,0,0,0,.626,1.837l.572.576a1.526,1.526,0,0,1,.137.139L36.023,71.437a1.239,1.239,0,0,1,.119.119l6.454,6.51a2.351,2.351,0,0,0,1.571.637,1.7,1.7,0,0,0,.219-.014.8.8,0,0,0,.666-.384l4.137-7.189-9.859-9.943Zm11.059-34c-5.754,0-10.948,2.294-16.348,7.219-.351.341-.711.68-1.093,1.038l-.114.107c-2.41,2.263-5.409,5.08-5.456,7.687a4.661,4.661,0,0,0,1.625,3.344l5.487,5.534a113.133,113.133,0,0,1,23.04-23.863A26.026,26.026,0,0,0,40.525,17.221ZM92.04,2.943A49.233,49.233,0,0,0,78.4,5.368l16.262,16.36a57.743,57.743,0,0,0,2.177-10.234,24.2,24.2,0,0,0-.033-6.565,3.874,3.874,0,0,0-.378-1.375,4.766,4.766,0,0,0-1.418-.375A16.587,16.587,0,0,0,92.04,2.943Z" transform="translate(0 0)" fill="#727272"/>
      <path id="Path" d="M18.112,26.761a1.476,1.476,0,1,0,.846,2.828,15.431,15.431,0,0,0,6.514-3.92,15.216,15.216,0,0,0,.244-21.36A14.511,14.511,0,0,0,15.332,0,15.166,15.166,0,0,0,4.5,4.555a15.216,15.216,0,0,0-.244,21.36,14.556,14.556,0,0,0,6.106,3.679,1.476,1.476,0,0,0,.854-2.826,11.436,11.436,0,0,1-4.864-2.931A12.256,12.256,0,0,1,6.6,6.633a12.236,12.236,0,0,1,8.734-3.681,11.581,11.581,0,0,1,8.287,3.436,12.256,12.256,0,0,1-.244,17.2,12.473,12.473,0,0,1-5.264,3.17Z" transform="translate(49.856 20.444)" fill="#727272"/>
    </g>
  </g>
</svg>
