<svg id="shopping-cart-icon" xmlns="http://www.w3.org/2000/svg" width="28" height="25" viewBox="0 0 28 25">
  <path id="Shape" d="M20.4,25a3.049,3.049,0,1,1,3.045-3.049A3.05,3.05,0,0,1,20.4,25Zm0-4.269a1.22,1.22,0,1,0,1.218,1.219A1.206,1.206,0,0,0,20.4,20.732ZM11.874,25a3.049,3.049,0,1,1,3.045-3.049A3.05,3.05,0,0,1,11.874,25Zm0-4.269a1.22,1.22,0,1,0,1.218,1.219A1.206,1.206,0,0,0,11.874,20.732Zm11.884-3.048H8.519c-.423,0-.812-.419-.946-1.02L4.433,1.83H.914A.915.915,0,0,1,.914,0H5.176A.942.942,0,0,1,6.07.725l.495,2.325H27.1a.9.9,0,0,1,.69.358.915.915,0,0,1,.195.756L25.85,13.31a.946.946,0,0,1-.885.715H8.877l.39,1.829H23.758a.915.915,0,1,1,0,1.83ZM6.945,4.878h0L8.5,12.195H24.242l1.7-7.317h-19Z" fill="#ffc20f"/>
</svg>
