<svg xmlns="http://www.w3.org/2000/svg" width="71.68" height="71.68" viewBox="0 0 71.68 71.68">
  <g id="trolley" transform="translate(0 0)">
    <path id="Path" d="M0,0H9.043V21.588H0Z" transform="translate(44.374 6.216)" fill="#ffbd54"/>
    <path id="Path-2" data-name="Path" d="M0,0H9.043V21.588H0Z" transform="translate(44.374 6.216)" fill="#ffbd54"/>
    <path id="Path-3" data-name="Path" d="M0,0H16.586V21.588H0Z" transform="translate(31.483 6.216)" fill="#ffd659"/>
    <path id="Path-4" data-name="Path" d="M0,0H16.586V21.588H0Z" transform="translate(31.483 6.216)" fill="#ffd659"/>
    <path id="Path-5" data-name="Path" d="M12.968,18.364H3.617A3.617,3.617,0,0,1,0,14.746V3.618A3.617,3.617,0,0,1,3.617,0h9.351a3.617,3.617,0,0,1,3.618,3.618V14.746A3.617,3.617,0,0,1,12.968,18.364Z" transform="translate(5.305 9.441)" fill="#fe5555"/>
    <path id="Path-6" data-name="Path" d="M14.413.907V23.566A3.034,3.034,0,0,1,11.379,26.6H0V.448A1.276,1.276,0,0,1,.961,0C1.93,0,1.93.911,2.9.911S3.866.022,4.8,0h.035C5.8,0,5.8.911,6.773.911S7.74,0,8.71,0s.969.911,1.938.911c.79,0,.936-.606,1.489-.83A1.185,1.185,0,0,1,12.584,0c.931,0,.967.842,1.829.907Z" transform="translate(26.289 1.05)" fill="#db9a6c"/>
    <path id="Path-7" data-name="Path" d="M5.405,0a1.185,1.185,0,0,0-.448.081c-.553.224-.7.83-1.489.83A1.184,1.184,0,0,1,3.034.834V23.566A3.034,3.034,0,0,1,0,26.6H4.2a3.034,3.034,0,0,0,3.034-3.034V.907C6.373.842,6.337,0,5.405,0Z" transform="translate(33.468 1.05)" fill="#c48252"/>
    <path id="Path-8" data-name="Path" d="M22.261,26.6H3.034A3.034,3.034,0,0,1,0,23.566V0C.86.071.9.911,1.827.911,2.8.911,2.8,0,3.764,0S4.732.911,5.7.911,6.669,0,7.638,0s.969.911,1.937.911S10.543,0,11.512,0s.969.911,1.937.911a1.291,1.291,0,0,0,.976-.462A1.278,1.278,0,0,1,15.387,0c.968,0,.968.911,1.936.911s.969-.889,1.9-.91V23.566A3.034,3.034,0,0,0,22.261,26.6Z" transform="translate(11.863 1.05)" fill="#f5b387"/>
    <path id="Path-9" data-name="Path" d="M51.288,34.16H8.216a4.2,4.2,0,0,1-4.16-3.625L.011,1.273A1.12,1.12,0,0,1,1.12,0H55.488V29.96A4.2,4.2,0,0,1,51.288,34.16Z" transform="translate(1.142 18.081)" fill="#edebed"/>
    <path id="Path-10" data-name="Path" d="M14,2.1a2.1,2.1,0,0,1-2.1,2.1H5.32A1.12,1.12,0,0,0,4.2,5.32V47.053H0V4.2A4.2,4.2,0,0,1,4.2,0h7.7A2.1,2.1,0,0,1,14,2.1Z" transform="translate(56.63 13.427)" fill="#edebed"/>
    <path id="Path-11" data-name="Path" d="M64.881,7.094,58.4.615A2.1,2.1,0,0,0,56.918,0H8.477A2.1,2.1,0,0,0,6.992.615L.615,6.992a2.1,2.1,0,0,0,2.97,2.97L9.347,4.2h46.7l5.864,5.864a2.1,2.1,0,1,0,2.97-2.97Z" transform="translate(3.15 57.953)" fill="#edebed"/>
    <path id="Path-12" data-name="Path" d="M8.4,4.2A4.2,4.2,0,1,1,4.2,0,4.2,4.2,0,0,1,8.4,4.2Z" transform="translate(1.05 62.23)" fill="#4c779f"/>
    <path id="Path-13" data-name="Path" d="M8.4,4.2A4.2,4.2,0,1,1,4.2,0,4.2,4.2,0,0,1,8.4,4.2Z" transform="translate(62.23 62.23)" fill="#4c779f"/>
    <path id="Shape" d="M66.43,71.68a5.256,5.256,0,0,1-5.25-5.25,5.407,5.407,0,0,1,.055-.756L58.763,63.2H12.933l-2.486,2.487a5.468,5.468,0,0,1,.053.741A5.25,5.25,0,1,1,5.25,61.18a5.348,5.348,0,0,1,.742.053L9.4,57.825a3.128,3.128,0,0,1,2.227-.923h1.766a1.05,1.05,0,1,1,0,2.1H11.627a1.042,1.042,0,0,0-.742.307L8.143,62.052a5.272,5.272,0,0,1,1.485,1.485l2.128-2.127A1.053,1.053,0,0,1,12.5,61.1H59.2a1.057,1.057,0,0,1,.743.308l2.119,2.117a5.256,5.256,0,0,1,1.488-1.481L60.809,59.31A1.053,1.053,0,0,0,60.068,59H17.873a1.05,1.05,0,0,1,0-2.1H55.58V52.239a5.2,5.2,0,0,1-3.15,1.053H9.358a5.27,5.27,0,0,1-5.2-4.532L.113,19.5a2.17,2.17,0,0,1,2.149-2.467H4.254V13.058A4.674,4.674,0,0,1,8.923,8.39h1.891V1.055A1.051,1.051,0,0,1,11.863,0q.04,0,.08,0a2.367,2.367,0,0,1,1.521.756.8.8,0,0,0,.169.143.248.248,0,0,0,.055,0,.242.242,0,0,0,.056,0,.77.77,0,0,0,.174-.146,2.3,2.3,0,0,1,3.418,0,.771.771,0,0,0,.172.145.348.348,0,0,0,.112,0A.775.775,0,0,0,17.8.758a2.3,2.3,0,0,1,3.414,0,.778.778,0,0,0,.173.145.229.229,0,0,0,.056,0,.216.216,0,0,0,.056,0,.775.775,0,0,0,.176-.147,2.3,2.3,0,0,1,3.412,0,.8.8,0,0,0,.176.148.236.236,0,0,0,.055,0c.067,0,.155-.081.276-.194A2.275,2.275,0,0,1,27.249,0a2.319,2.319,0,0,1,1.71.761.771.771,0,0,0,.172.145.348.348,0,0,0,.112,0,.776.776,0,0,0,.175-.146A2.316,2.316,0,0,1,31.064,0h.059a2.318,2.318,0,0,1,1.71.761A.77.77,0,0,0,33,.905a.275.275,0,0,0,.056,0,.292.292,0,0,0,.056,0,.76.76,0,0,0,.177-.148,2.3,2.3,0,0,1,3.415,0,.777.777,0,0,0,.173.145.275.275,0,0,0,.056,0,.224.224,0,0,0,.055,0,.814.814,0,0,0,.17-.142,2.751,2.751,0,0,1,.874-.606A2.2,2.2,0,0,1,38.873,0a2.32,2.32,0,0,1,1.709.761.778.778,0,0,0,.174.146.109.109,0,0,0,.026,0,1.056,1.056,0,0,1,.97,1.048V5.166H53.417a1.051,1.051,0,0,1,1.05,1.049V17.032h1.147a5.245,5.245,0,0,1,5.215-4.654h7.7a3.15,3.15,0,1,1,0,6.3H61.95a.07.07,0,0,0-.069.069V49.262a1.05,1.05,0,0,1-2.1,0V18.747a2.172,2.172,0,0,1,2.17-2.17h6.58a1.05,1.05,0,1,0,0-2.1h-7.7a3.154,3.154,0,0,0-3.15,3.15V56.9h2.1V53.725a1.05,1.05,0,0,1,2.1,0v3.754a3.26,3.26,0,0,1,.415.347L65.7,61.232A5.249,5.249,0,1,1,66.43,71.68Zm0-8.4a3.15,3.15,0,1,0,3.15,3.15A3.154,3.154,0,0,0,66.43,63.28Zm-61.18,0A3.15,3.15,0,1,0,8.4,66.43,3.154,3.154,0,0,0,5.25,63.28ZM2.262,19.131a.065.065,0,0,0-.052.024.068.068,0,0,0-.017.055L6.238,48.473a3.162,3.162,0,0,0,3.12,2.718H52.43a3.154,3.154,0,0,0,3.15-3.15V19.131H17.943a1.05,1.05,0,0,1,0-2.1h12.1V2.849a2.245,2.245,0,0,1-.851.16,2.321,2.321,0,0,1-1.707-.759.774.774,0,0,0-.175-.146.286.286,0,0,0-.111,0,.786.786,0,0,0-.174.146,2.31,2.31,0,0,1-1.708.758,2.32,2.32,0,0,1-1.709-.76.777.777,0,0,0-.172-.144.189.189,0,0,0-.056-.005c-.07,0-.158.082-.279.2a2.246,2.246,0,0,1-1.659.714,2.306,2.306,0,0,1-1.7-.756.8.8,0,0,0-.176-.148.286.286,0,0,0-.111,0,.775.775,0,0,0-.175.147,2.308,2.308,0,0,1-1.706.757,2.319,2.319,0,0,1-1.709-.759.773.773,0,0,0-.173-.145.291.291,0,0,0-.112,0,.775.775,0,0,0-.175.147,2.308,2.308,0,0,1-1.706.757,2.249,2.249,0,0,1-.776-.131V17.032h.5a1.05,1.05,0,0,1,0,2.1ZM49.119,7.266v9.766h3.248V7.266Zm-7.367,0v9.766H47.02V7.266ZM36,3.491a1.051,1.051,0,0,1,1.05,1.05v12.49h2.605V2.693a2.972,2.972,0,0,1-.514-.41c-.116-.11-.193-.183-.265-.183s-.157.082-.278.2a2.248,2.248,0,0,1-1.659.714,2.318,2.318,0,0,1-1.709-.76.77.77,0,0,0-.172-.144A.236.236,0,0,0,35,2.1c-.067,0-.154.081-.275.193a2.27,2.27,0,0,1-1.663.717,2.19,2.19,0,0,1-.922-.192V17.032h2.808V4.541A1.051,1.051,0,0,1,36,3.491Zm-27.074,7a2.571,2.571,0,0,0-2.568,2.568v3.973h4.459V10.49Z" transform="translate(0)"/>
    <path id="Path-14" data-name="Path" d="M1.05,0A1.05,1.05,0,0,0,0,1.05v21a1.05,1.05,0,1,0,2.1,0v-21A1.05,1.05,0,0,0,1.05,0Z" transform="translate(9.87 23.45)"/>
    <path id="Path-15" data-name="Path" d="M1.05,0A1.05,1.05,0,0,0,0,1.05v21a1.05,1.05,0,1,0,2.1,0v-21A1.05,1.05,0,0,0,1.05,0Z" transform="translate(16.31 23.45)"/>
    <path id="Path-16" data-name="Path" d="M1.05,0A1.05,1.05,0,0,0,0,1.05v21a1.05,1.05,0,1,0,2.1,0v-21A1.05,1.05,0,0,0,1.05,0Z" transform="translate(22.75 23.45)"/>
    <path id="Path-17" data-name="Path" d="M1.05,0A1.05,1.05,0,0,0,0,1.05v21a1.05,1.05,0,1,0,2.1,0v-21A1.05,1.05,0,0,0,1.05,0Z" transform="translate(29.19 23.45)"/>
    <path id="Path-18" data-name="Path" d="M1.05,0A1.05,1.05,0,0,0,0,1.05v21a1.05,1.05,0,1,0,2.1,0v-21A1.05,1.05,0,0,0,1.05,0Z" transform="translate(35.63 23.45)"/>
    <path id="Path-19" data-name="Path" d="M1.05,0A1.05,1.05,0,0,0,0,1.05v21a1.05,1.05,0,1,0,2.1,0v-21A1.05,1.05,0,0,0,1.05,0Z" transform="translate(42.07 23.45)"/>
    <path id="Path-20" data-name="Path" d="M1.05,0A1.05,1.05,0,0,0,0,1.05v21a1.05,1.05,0,1,0,2.1,0v-21A1.05,1.05,0,0,0,1.05,0Z" transform="translate(48.51 23.45)"/>
  </g>
</svg>
