<svg xmlns="http://www.w3.org/2000/svg" width="71.684" height="71.82" viewBox="0 0 71.684 71.82">
  <g id="business" transform="translate(-0.07)">
    <path id="Path" d="M34.305,11.6H2.965A2.965,2.965,0,0,1,0,8.639V2.965A2.965,2.965,0,0,1,2.965,0h31.34A2.965,2.965,0,0,1,37.27,2.965V8.639A2.965,2.965,0,0,1,34.305,11.6Z" transform="translate(33.433 59.138)" fill="#fa0"/>
    <path id="Path-2" data-name="Path" d="M7.381,2.965V8.639A2.965,2.965,0,0,1,4.416,11.6H0A2.965,2.965,0,0,0,2.965,8.639V2.965A2.965,2.965,0,0,0,0,0H4.416A2.965,2.965,0,0,1,7.381,2.965Z" transform="translate(63.322 59.138)" fill="#ff9500"/>
    <path id="Path-3" data-name="Path" d="M34.305,11.6H2.965A2.965,2.965,0,0,1,0,8.638V2.965A2.965,2.965,0,0,1,2.965,0h31.34A2.965,2.965,0,0,1,37.27,2.965V8.638A2.965,2.965,0,0,1,34.305,11.6Z" transform="translate(30.956 47.521)" fill="#ffcd6b"/>
    <path id="Path-4" data-name="Path" d="M7.381,2.965V8.639A2.965,2.965,0,0,1,4.416,11.6H0A2.965,2.965,0,0,0,2.966,8.639V2.965A2.965,2.965,0,0,0,0,0H4.416A2.965,2.965,0,0,1,7.381,2.965Z" transform="translate(60.845 47.52)" fill="#ffc143"/>
    <path id="Path-5" data-name="Path" d="M34.305,11.6H2.965A2.965,2.965,0,0,1,0,8.639V2.965A2.965,2.965,0,0,1,2.965,0h31.34A2.965,2.965,0,0,1,37.27,2.965V8.639A2.965,2.965,0,0,1,34.305,11.6Z" transform="translate(17.913 59.138)" fill="#ffcd6b"/>
    <path id="Path-6" data-name="Path" d="M34.305,11.6H2.965A2.965,2.965,0,0,1,0,8.639V2.965A2.965,2.965,0,0,1,2.965,0h31.34A2.965,2.965,0,0,1,37.27,2.965V8.639A2.965,2.965,0,0,1,34.305,11.6Z" transform="translate(17.913 35.903)" fill="#ffcd6b"/>
    <path id="Path-7" data-name="Path" d="M34.305,11.6H2.965A2.965,2.965,0,0,1,0,8.639V2.965A2.965,2.965,0,0,1,2.965,0h31.34A2.965,2.965,0,0,1,37.27,2.965V8.639A2.965,2.965,0,0,1,34.305,11.6Z" transform="translate(17.913 12.668)" fill="#ffcd6b"/>
    <g id="Group" transform="translate(17.815 0.982)">
      <path id="Path-8" data-name="Path" d="M34.305,11.6H2.965A2.965,2.965,0,0,1,0,8.638V2.965A2.965,2.965,0,0,1,2.965,0h31.34A2.965,2.965,0,0,1,37.27,2.965V8.638A2.965,2.965,0,0,1,34.305,11.6Z" transform="translate(0.098 46.539)" fill="#fa0"/>
      <path id="Path-9" data-name="Path" d="M34.305,11.6H2.965A2.965,2.965,0,0,1,0,8.638V2.965A2.965,2.965,0,0,1,2.965,0h31.34A2.965,2.965,0,0,1,37.27,2.965V8.638A2.965,2.965,0,0,1,34.305,11.6Z" transform="translate(1.502 23.304)" fill="#fa0"/>
      <path id="Path-10" data-name="Path" d="M34.305,11.6H2.965A2.965,2.965,0,0,1,0,8.639V2.965A2.965,2.965,0,0,1,2.965,0h31.34A2.965,2.965,0,0,1,37.27,2.965V8.639A2.965,2.965,0,0,1,34.305,11.6Z" transform="translate(1.502 0.07)" fill="#fa0"/>
    </g>
    <path id="Path-11" data-name="Path" d="M7.425,2.965V8.639A2.964,2.964,0,0,1,4.46,11.6H0A2.965,2.965,0,0,0,2.965,8.639V2.965A2.965,2.965,0,0,0,0,0H4.46A2.964,2.964,0,0,1,7.425,2.965Z" transform="translate(47.758 59.138)" fill="#ffc143"/>
    <path id="Path-12" data-name="Path" d="M7.425,2.965V8.64A2.964,2.964,0,0,1,4.46,11.6H0A2.965,2.965,0,0,0,2.965,8.64V2.965A2.965,2.965,0,0,0,0,0H4.46A2.964,2.964,0,0,1,7.425,2.965Z" transform="translate(47.758 35.902)" fill="#ffc143"/>
    <path id="Path-13" data-name="Path" d="M7.425,2.965V8.638A2.964,2.964,0,0,1,4.46,11.6H0A2.965,2.965,0,0,0,2.965,8.638V2.965A2.965,2.965,0,0,0,0,0H4.46A2.964,2.964,0,0,1,7.425,2.965Z" transform="translate(47.758 12.668)" fill="#ffc143"/>
    <path id="Path-14" data-name="Path" d="M7.425,2.965V8.639A2.964,2.964,0,0,1,4.46,11.6H0A2.965,2.965,0,0,0,2.965,8.639V2.965A2.965,2.965,0,0,0,0,0H4.46A2.964,2.964,0,0,1,7.425,2.965Z" transform="translate(47.758 47.52)" fill="#ff9500"/>
    <path id="Path-15" data-name="Path" d="M7.426,2.965V8.639A2.965,2.965,0,0,1,4.461,11.6H0A2.964,2.964,0,0,0,2.965,8.639V2.965A2.964,2.964,0,0,0,0,0H4.461A2.965,2.965,0,0,1,7.426,2.965Z" transform="translate(49.161 24.286)" fill="#ff9500"/>
    <path id="Path-16" data-name="Path" d="M7.426,2.965V8.64A2.965,2.965,0,0,1,4.461,11.6H0A2.964,2.964,0,0,0,2.965,8.64V2.965A2.964,2.964,0,0,0,0,0H4.461A2.965,2.965,0,0,1,7.426,2.965Z" transform="translate(49.161 1.051)" fill="#ff9500"/>
    <path id="Path-17" data-name="Path" d="M35.426,17.713A17.713,17.713,0,1,1,17.713,0,17.713,17.713,0,0,1,35.426,17.713Z" transform="translate(1.122 35.342)" fill="#fa0"/>
    <path id="Path-18" data-name="Path" d="M30.072,15.557A17.712,17.712,0,0,1,0,28.246,17.715,17.715,0,0,0,20.837,0a17.711,17.711,0,0,1,9.236,15.557Z" transform="translate(6.476 37.498)" fill="#ff9500"/>
    <path id="Shape" d="M18.764,71.82A18.784,18.784,0,0,1,3.329,63.729a1.052,1.052,0,0,1,1.729-1.2,16.575,16.575,0,1,0-2.066-4.09A1.051,1.051,0,1,1,1,59.12,18.782,18.782,0,0,1,18.44,34.294a3.973,3.973,0,0,1-.245-1.37V27.251a3.986,3.986,0,0,1,.778-2.372,4.007,4.007,0,0,1-2.182-3.571V15.633a4,4,0,0,1,2.182-3.57A3.987,3.987,0,0,1,18.2,9.69V4.017A4.021,4.021,0,0,1,22.211,0H53.552a4.021,4.021,0,0,1,4.017,4.017V9.69a4.007,4.007,0,0,1-2.183,3.571,3.981,3.981,0,0,1,.778,2.372v5.674a3.985,3.985,0,0,1-.778,2.372,4.008,4.008,0,0,1,2.183,3.571,1.052,1.052,0,0,1-2.1,0,1.916,1.916,0,0,0-1.913-1.913H22.211A1.916,1.916,0,0,0,20.3,27.251v5.674a1.9,1.9,0,0,0,.735,1.5,18.907,18.907,0,0,1,2.225.41H53.552a1.916,1.916,0,0,0,1.914-1.913v-.94a1.051,1.051,0,0,1,2.1,0v.94A4.007,4.007,0,0,1,55.386,36.5a3.981,3.981,0,0,1,.778,2.372v5.674a4.007,4.007,0,0,1-.495,1.927h9.522a4.021,4.021,0,0,1,4.016,4.017v5.674a4.013,4.013,0,0,1-.562,2.048,4.012,4.012,0,0,1,3.039,3.9v5.674a4.021,4.021,0,0,1-4.017,4.017H52.148ZM55.677,60.188a4.012,4.012,0,0,1,.488,1.914v5.674a4.014,4.014,0,0,1-.486,1.913h11.99a1.916,1.916,0,0,0,1.913-1.913V62.1a1.916,1.916,0,0,0-1.913-1.914Zm-19.557,0a18.871,18.871,0,0,1-8.679,9.5H52.148a1.916,1.916,0,0,0,1.913-1.913V62.1a1.916,1.916,0,0,0-1.913-1.914H36.12ZM55.677,48.571a4.012,4.012,0,0,1,.488,1.914v5.674a4.01,4.01,0,0,1-.488,1.913h9.515A1.916,1.916,0,0,0,67.1,56.159V50.486a1.916,1.916,0,0,0-1.913-1.914Zm-18.69,0a18.793,18.793,0,0,1-.139,9.5h15.3a1.916,1.916,0,0,0,1.913-1.913V50.486a1.916,1.916,0,0,0-1.913-1.914ZM28.391,36.955a18.914,18.914,0,0,1,7.939,9.5H52.148a1.916,1.916,0,0,0,1.913-1.913V38.868a1.916,1.916,0,0,0-1.913-1.913ZM20.808,13.72a1.916,1.916,0,0,0-1.913,1.913v5.674a1.915,1.915,0,0,0,1.912,1.913H52.148a1.916,1.916,0,0,0,1.913-1.913V15.633a1.916,1.916,0,0,0-1.913-1.913ZM22.211,2.1A1.916,1.916,0,0,0,20.3,4.017V9.69A1.916,1.916,0,0,0,22.211,11.6H53.552A1.916,1.916,0,0,0,55.465,9.69V4.017A1.916,1.916,0,0,0,53.552,2.1Z" transform="translate(0.07 0)"/>
    <path id="Path-19" data-name="Path" d="M24.236,12.118A12.118,12.118,0,1,1,12.118,0,12.119,12.119,0,0,1,24.236,12.118Z" transform="translate(6.717 40.938)" fill="#ffcd6b"/>
    <path id="Path-20" data-name="Path" d="M21.157,11.171A12.116,12.116,0,0,1,0,19.24,12.124,12.124,0,0,0,16.817,8.066,12.066,12.066,0,0,0,13.741,0a12.12,12.12,0,0,1,7.416,11.171Z" transform="translate(9.796 41.884)" fill="#ffc143"/>
    <path id="Shape-2" data-name="Shape" d="M13.976,26.307a1.051,1.051,0,0,1-.069-2.1,11.048,11.048,0,0,0,2.512-.463,1.051,1.051,0,1,1,.617,2.01,13.082,13.082,0,0,1-2.989.551Zm-4.829-.653a1.048,1.048,0,0,1-.348-.059,13.1,13.1,0,0,1-2.732-1.333A1.051,1.051,0,1,1,7.2,22.491,11.038,11.038,0,0,0,9.5,23.61a1.052,1.052,0,0,1-.348,2.044ZM21,23.458a1.052,1.052,0,0,1-.681-1.853,11.14,11.14,0,0,0,1.746-1.867,1.057,1.057,0,0,1,.846-.426,1.051,1.051,0,0,1,.844,1.676,13.207,13.207,0,0,1-2.075,2.219A1.056,1.056,0,0,1,21,23.458ZM3.14,21.031a1.052,1.052,0,0,1-.869-.459A13.155,13.155,0,0,1,.86,17.879a1.052,1.052,0,0,1,1.964-.752,11.021,11.021,0,0,0,1.183,2.261,1.05,1.05,0,0,1-.868,1.643Zm21.819-4.036a1.113,1.113,0,0,1-.24-.028,1.054,1.054,0,0,1-.784-1.264,11.1,11.1,0,0,0,.293-2.538,1.052,1.052,0,0,1,2.1,0,13.254,13.254,0,0,1-.348,3.019A1.049,1.049,0,0,1,24.959,16.995ZM1.052,13.748H1.012A1.051,1.051,0,0,1,0,12.656a13.2,13.2,0,0,1,.464-3,1.05,1.05,0,0,1,1.293-.734,1.052,1.052,0,0,1,.734,1.293,11.032,11.032,0,0,0-.39,2.524A1.048,1.048,0,0,1,1.052,13.748Zm23.586-3.429a1.052,1.052,0,0,1-1-.714,11.075,11.075,0,0,0-1.1-2.307,1.051,1.051,0,1,1,1.782-1.116,13.086,13.086,0,0,1,1.305,2.747,1.052,1.052,0,0,1-1,1.39ZM3.7,6.647a1.059,1.059,0,0,1-.657-.23,1.052,1.052,0,0,1-.163-1.478A13.186,13.186,0,0,1,5.035,2.8a1.051,1.051,0,0,1,1.3,1.654,11.182,11.182,0,0,0-1.816,1.8A1.045,1.045,0,0,1,3.7,6.647ZM20.075,4.264a1.041,1.041,0,0,1-.6-.189,11.035,11.035,0,0,0-2.251-1.207A1.052,1.052,0,0,1,18,.912,13.16,13.16,0,0,1,20.677,2.35a1.052,1.052,0,0,1-.6,1.914ZM10.043,2.5A1.052,1.052,0,0,1,9.774.435,13.206,13.206,0,0,1,12.782,0h.027a1.06,1.06,0,0,1,1.054,1.022A1.053,1.053,0,0,1,12.841,2.1a11.111,11.111,0,0,0-2.528.365A1.036,1.036,0,0,1,10.043,2.5Z" transform="translate(5.674 39.891)"/>
  </g>
</svg>
