<svg xmlns="http://www.w3.org/2000/svg" width="63.701" height="68.386" viewBox="0 0 63.701 68.386">
  <g id="faucet" transform="translate(-0.148 -0.307)" opacity="0.6">
    <path id="Shape" d="M55.967,68.386a1.142,1.142,0,0,1-1.143-1.139V24.724a1.815,1.815,0,0,0-1.813-1.807H47.763v5.068a1.142,1.142,0,0,1-1.143,1.139H24.58a1.142,1.142,0,0,1-1.143-1.139V25.46H19.661a1.142,1.142,0,0,1-1.143-1.139V22.964H11.647a.729.729,0,0,0-.727.724v4.043a2.924,2.924,0,0,1-1.075,5.648H2.931a2.92,2.92,0,0,1-.937-5.689V22.446a8.4,8.4,0,0,1,8.4-8.378h8.119V12.712a1.143,1.143,0,0,1,1.143-1.139h3.776V9.049A1.142,1.142,0,0,1,24.58,7.909H31.9V2.278H29.45A1.139,1.139,0,1,1,29.45,0h12.3a1.139,1.139,0,1,1,0,2.278H39.3V7.909H46.62a1.142,1.142,0,0,1,1.143,1.139v5.02h5.248a1.817,1.817,0,0,0,1.813-1.807V1.139a1.143,1.143,0,0,1,2.286,0V12.262a4.1,4.1,0,0,1-4.1,4.085H47.763v4.291h5.248a4.1,4.1,0,0,1,4.1,4.086V67.246A1.142,1.142,0,0,1,55.967,68.386ZM2.94,29.8a.651.651,0,1,0,0,1.3h6.9a.651.651,0,1,0,0-1.3ZM10.4,16.345a6.124,6.124,0,0,0-6.118,6.1V27.52H8.636V23.689a3.016,3.016,0,0,1,3.012-3l6.87,0V16.345Zm15.323-6.157V26.845H45.478V10.188ZM20.8,13.851v9.33h2.632V13.851ZM34.185,2.278V7.909h2.831V2.278Z" transform="translate(0.149 0.307)"/>
    <path id="Path" d="M1.143,0A1.141,1.141,0,0,0,0,1.139V67.246a1.143,1.143,0,0,0,2.286,0V1.139A1.141,1.141,0,0,0,1.143,0Z" transform="translate(61.563 0.307)"/>
    <path id="Shape-2" data-name="Shape" d="M3.619,9.359A3.617,3.617,0,0,1,0,5.752C0,4.135,2.072,1.268,2.707.428a1.187,1.187,0,0,1,1.824,0c.635.84,2.707,3.707,2.707,5.324A3.618,3.618,0,0,1,3.619,9.359Zm0-6.259A8.307,8.307,0,0,0,2.288,5.752a1.333,1.333,0,0,0,2.667,0A8.474,8.474,0,0,0,3.621,3.1Z" transform="translate(2.905 36.238)"/>
  </g>
</svg>
