<svg xmlns="http://www.w3.org/2000/svg" width="62.978" height="74.062" viewBox="0 0 62.978 74.062">
  <g id="idea" transform="translate(-0.537 -0.469)">
    <path id="Shape" d="M30.227,49.57H10.463a1.094,1.094,0,0,1-1.1-1.094A26.908,26.908,0,0,0,8,40a26.968,26.968,0,0,0-3.962-7.623A20.269,20.269,0,0,1,20.341,0,20.306,20.306,0,0,1,40.685,20.269a20.025,20.025,0,0,1-4.142,12.254,26.358,26.358,0,0,0-5.218,15.953,1.1,1.1,0,0,1-.321.774A1.111,1.111,0,0,1,30.227,49.57ZM26.591,26.843a1.093,1.093,0,0,1,.645,1.978l-5.793,4.4V47.383H29.15A28.432,28.432,0,0,1,34.8,31.2,18.018,18.018,0,0,0,35,9.611,18.185,18.185,0,0,0,5.578,9.76,18.018,18.018,0,0,0,5.8,31.067a29.161,29.161,0,0,1,4.11,7.724,29.091,29.091,0,0,1,1.632,8.589h7.708V33.218l-5.793-4.4a1.094,1.094,0,0,1,.646-1.978,1.106,1.106,0,0,1,.685.239l4.462,3.387V24.411a1.1,1.1,0,0,1,2.2,0v6.058l4.463-3.387A1.1,1.1,0,0,1,26.591,26.843Z" transform="translate(11.655 11.523)"/>
    <path id="Shape-2" data-name="Shape" d="M11,12.64h-.083A6.382,6.382,0,0,1,4.973,8.357H1.1a1.094,1.094,0,0,1-.777-.32A1.084,1.084,0,0,1,0,7.264V1.093A1.1,1.1,0,0,1,1.1,0H20.869a1.1,1.1,0,0,1,1.1,1.093v6.17a1.085,1.085,0,0,1-.321.774,1.1,1.1,0,0,1-.773.32h-3.88A6.326,6.326,0,0,1,11,12.64ZM7.371,8.358a4.2,4.2,0,0,0,3.57,2.1h.05a4.152,4.152,0,0,0,3.6-2.1ZM2.2,2.189V6.171H19.771l0-3.983Z" transform="translate(21.016 61.891)"/>
    <path id="Path" d="M1.1,8.386A1.1,1.1,0,0,0,2.2,7.292v-6.2a1.1,1.1,0,0,0-2.2,0v6.2A1.1,1.1,0,0,0,1.1,8.386Z" transform="translate(30.902 0.469)"/>
    <path id="Path-2" data-name="Path" d="M.449,6.966a1.1,1.1,0,0,0,1.535-.235l3.679-5A1.1,1.1,0,0,0,3.892.437l-3.679,5A1.09,1.09,0,0,0,.449,6.966Z" transform="translate(43.14 4.831)"/>
    <path id="Path-3" data-name="Path" d="M7.4.541A1.1,1.1,0,0,0,5.9.151L.529,3.286A1.095,1.095,0,0,0,1.639,5.173L7.008,2.04A1.091,1.091,0,0,0,7.4.541Z" transform="translate(51.88 15.401)"/>
    <path id="Path-4" data-name="Path" d="M8.36.952A1.1,1.1,0,0,0,7.129.009L.959.816A1.094,1.094,0,0,0,1.1,2.995a1.124,1.124,0,0,0,.144-.009l6.167-.807A1.1,1.1,0,0,0,8.36.952Z" transform="translate(55.145 29.121)"/>
    <path id="Path-5" data-name="Path" d="M3.885,6.731A1.1,1.1,0,0,0,5.656,5.437l-3.679-5A1.1,1.1,0,0,0,.206,1.731Z" transform="translate(14.991 4.831)"/>
    <path id="Path-6" data-name="Path" d="M7.429,4.788a1.091,1.091,0,0,0-.392-1.5L1.667.159A1.095,1.095,0,1,0,.557,2.045L5.923,5.179a1.1,1.1,0,0,0,1.506-.391Z" transform="translate(4.556 15.393)"/>
    <path id="Path-7" data-name="Path" d="M7.359.808,1.19,0A1.094,1.094,0,0,0,.907,2.171l6.169.8a1.124,1.124,0,0,0,.144.009A1.094,1.094,0,0,0,7.361.806Z" transform="translate(0.537 29.129)"/>
    <path id="Path-8" data-name="Path" d="M1.509.079A1.095,1.095,0,1,0,.688,2.109,13.653,13.653,0,0,1,9.316,14.822a1.1,1.1,0,0,0,2.2,0A15.832,15.832,0,0,0,1.509.079Z" transform="translate(36.437 16.967)"/>
  </g>
</svg>
