<?xml version="1.0" encoding="UTF-8"?>
<svg width="24px" height="24px" viewBox="0 0 24 24" version="1.1" xmlns="http://www.w3.org/2000/svg" xmlns:xlink="http://www.w3.org/1999/xlink">
    <!-- Generator: Sketch 63.1 (92452) - https://sketch.com -->
    <title>Icon/Product@2x</title>
    <desc>Created with Sketch.</desc>
    <g id="Icon/Product" stroke="none" stroke-width="1" fill="none" fill-rule="evenodd">
        <g>
            <g id="box" transform="translate(3.000000, 5.000000)" fill="#FFFFFF" fill-rule="nonzero">
                <path d="M12.1241307,9.55891657 C12.1241307,10.0090662 11.5963503,10.2577294 11.2491191,9.96583231 L8.90999953,7.99460911 L6.57087994,9.96583231 C6.22568815,10.2569137 5.69586839,10.0108337 5.69586839,9.55891657 L5.69586839,4.41040626 L1.29742624,4.41040626 L1.29742624,14.3770543 C1.29742624,14.6709908 1.53575675,14.9091853 1.82969318,14.9091853 L16.0793569,14.9091853 C16.3732934,14.9091853 16.6116239,14.6709908 16.6116239,14.3770543 L16.6116239,4.41040626 L12.1241307,4.41040626 L12.1241307,9.55891657 Z" id="Path"></path>
                <path d="M5.69586839,3.34614423 L5.69586839,0 L0.532130997,0 C0.238330515,0 0,0.238330515 0,0.532130997 L0,2.81387725 C0,3.10781372 0.238330515,3.34614423 0.532130997,3.34614423 L5.69586839,3.34614423 Z" id="Path"></path>
                <path d="M12.1241307,0 L12.1241307,3.34614423 L17.2878681,3.34614423 C17.5816685,3.34614423 17.8199991,3.10781372 17.8199991,2.81387725 L17.8199991,0.532130997 C17.8199991,0.238330515 17.5816685,0 17.2878681,0 L12.1241307,0 Z" id="Path"></path>
                <path d="M9.25315198,6.89159965 L11.0597327,8.41430465 C11.0597327,7.98400454 11.0597327,0.291625189 11.0597327,0 L6.76026637,0 L6.76026637,8.41430465 L8.56684708,6.89159965 C8.76575043,6.72464596 9.05397673,6.72450998 9.25315198,6.89159965 Z" id="Path"></path>
            </g>
            <rect id="Rectangle" x="0" y="0" width="24" height="24"></rect>
        </g>
    </g>
</svg>