<svg id="service-icon" xmlns="http://www.w3.org/2000/svg" width="24" height="24" viewBox="0 0 24 24">
  <g id="Group_24" data-name="Group 24">
    <g id="productivity" transform="translate(2 2)">
      <path id="Path" d="M19.414,8.242H18.6a8.789,8.789,0,0,0-1.278-3.08l.548-.549a.586.586,0,0,0,0-.829L16.215,2.128a.586.586,0,0,0-.829,0l-.549.548A8.789,8.789,0,0,0,11.758,1.4V.586A.586.586,0,0,0,11.172,0H8.828a.586.586,0,0,0-.586.586V1.4a8.789,8.789,0,0,0-3.08,1.278l-.549-.548a.586.586,0,0,0-.829,0L2.128,3.785a.586.586,0,0,0,0,.829l.548.549A8.789,8.789,0,0,0,1.4,8.242H.586A.586.586,0,0,0,0,8.828v2.344a.586.586,0,0,0,.586.586H1.4a8.789,8.789,0,0,0,1.278,3.08l-.548.549a.586.586,0,0,0,0,.829l1.657,1.657a.586.586,0,0,0,.829,0l.549-.548A8.789,8.789,0,0,0,8.242,18.6v.812A.586.586,0,0,0,8.828,20h2.344a.586.586,0,0,0,.586-.586V18.6a8.789,8.789,0,0,0,3.08-1.278l.549.548a.586.586,0,0,0,.829,0l1.657-1.657a.586.586,0,0,0,0-.829l-.548-.549a8.789,8.789,0,0,0,1.278-3.08h.812A.586.586,0,0,0,20,11.172V8.828A.586.586,0,0,0,19.414,8.242Z" fill="#6d7278"/>
      <path id="Path-2" data-name="Path" d="M5.273,10.547a5.273,5.273,0,1,1,5.273-5.273A5.294,5.294,0,0,1,5.273,10.547Z" transform="translate(4.727 4.727)" fill="rgba(254,252,248,0)"/>
      <path id="Path-3" data-name="Path" d="M2.344,0A2.344,2.344,0,1,0,4.688,2.344,2.346,2.346,0,0,0,2.344,0Z" transform="translate(7.656 5.898)" fill="#6d7278"/>
      <path id="Path-4" data-name="Path" d="M3.349,0A4.064,4.064,0,0,0,0,1.767,4.094,4.094,0,0,0,3.349,3.516,4.094,4.094,0,0,0,6.7,1.767,4.064,4.064,0,0,0,3.349,0Z" transform="translate(6.651 10.586)" fill="#6d7278"/>
    </g>
    <rect id="Rectangle" width="24" height="24" fill="none"/>
  </g>
</svg>
